<svg width="821" height="913" viewBox="0 0 821 913" fill="none" xmlns="http://www.w3.org/2000/svg">
<path fill-rule="evenodd" clip-rule="evenodd" d="M655.615 -27.7218C786.852 10.4739 824.307 -270.77 959.289 -240.913C1078.17 -214.618 887.363 -52.0798 935.244 34.1293C973.64 103.261 1121.21 95.3547 1179.7 155.94C1265.06 244.35 1361.68 346.307 1341.21 454.592C1320.85 562.254 1184.4 633.567 1075.85 705.114C948.711 788.908 815.641 947.02 655.615 906.465C469.884 859.395 514.226 628.307 371.898 526.713C276.671 458.739 23.8687 537.981 2.65479 440.378C-23.4016 320.495 263.722 275.627 291.311 155.94C311.748 67.2794 138.013 12.5689 121.82 -76.5889C97.7757 -208.967 2.12491 -484.418 177.925 -468.324C431.906 -445.073 416.915 -97.1939 655.615 -27.7218Z" fill="#414F7A"/>
</svg>
