<svg width="481" height="335" viewBox="0 0 481 335" fill="none" xmlns="http://www.w3.org/2000/svg">
<g clip-path="url(#clip0)">
<path opacity="0.1" d="M452.61 195.329C435.931 218.228 441.435 250.914 451.077 276.955C454.306 285.672 457.974 294.892 456.3 304.377C454.255 315.971 444.643 324.659 434.653 329.39C416.439 338.014 394.924 336.637 378.632 325.771C364.572 316.393 354.675 300.809 340.343 291.879C316.357 276.938 285.217 283.613 258.521 295.02C239.635 303.09 218.946 313.482 200.541 306.031C187.589 300.788 178.868 287.441 174.279 273.174C172.064 266.286 170.513 258.809 166.099 253.417C163.475 250.211 160.007 247.977 156.441 246.11C123.895 229.06 82.0318 239.716 50.4788 220.692C29.1765 207.844 15.918 182.912 10.4092 156.701C4.90045 130.489 6.2638 102.82 8.45794 75.6243C10.0173 56.2973 12.4841 35.6446 24.0981 20.4566C36.381 4.39485 56.9675 -1.99065 75.3769 0.528593C93.7863 3.04784 110.287 13.2911 124.73 25.4823C142.782 40.7214 159.402 59.8481 181.867 65.6283C197.166 69.567 213.42 66.7792 229.324 65.5473C255.909 63.4927 282.401 65.8585 308.731 68.5312C333.935 71.0888 359.315 73.9448 383.186 82.3295C400.079 88.2631 413.47 99.4782 429.374 107.143C439.74 112.138 451.145 113.298 460.901 119.752C472.941 127.701 483.823 141.785 480.291 158.687C476.955 174.749 461.464 183.176 452.61 195.329Z" fill="#949ABB"/>
<path d="M246.6 67.7383H167.254C164.992 67.7383 163.159 69.5723 163.159 71.8347V122.484C163.159 124.746 164.992 126.58 167.254 126.58H246.6C248.862 126.58 250.695 124.746 250.695 122.484V71.8347C250.695 69.5723 248.862 67.7383 246.6 67.7383Z" fill="#474059"/>
<path d="M248.667 74.6097H165V122.68H248.667V74.6097Z" fill="white"/>
<path d="M206.833 72.9217C207.24 72.9217 207.57 72.5648 207.57 72.1246C207.57 71.6843 207.24 71.3275 206.833 71.3275C206.426 71.3275 206.096 71.6843 206.096 72.1246C206.096 72.5648 206.426 72.9217 206.833 72.9217Z" fill="white"/>
<path d="M214.366 124.449H199.028V140.647H214.366V124.449Z" fill="#474059"/>
<path d="M197.75 139.368H216.496C217.174 139.368 217.824 139.638 218.304 140.118C218.783 140.597 219.052 141.248 219.052 141.926H195.194C195.194 141.248 195.463 140.597 195.942 140.118C196.422 139.638 197.072 139.368 197.75 139.368Z" fill="#474059"/>
<path d="M163.24 153.009H100.186V174.749H163.24V153.009Z" fill="#C0BCCF"/>
<path d="M371.151 142.352H357.517V260.855H371.151V142.352Z" fill="#C0BCCF"/>
<path opacity="0.1" d="M163.24 153.009H100.186V154.288H163.24V153.009Z" fill="black"/>
<path opacity="0.1" d="M371.151 142.352H357.517V154.288H371.151V142.352Z" fill="black"/>
<path d="M163.24 173.896H100.186V195.636H163.24V173.896Z" fill="#C0BCCF"/>
<path d="M131.713 188.389C133.831 188.389 135.547 186.672 135.547 184.553C135.547 182.434 133.831 180.716 131.713 180.716C129.595 180.716 127.879 182.434 127.879 184.553C127.879 186.672 129.595 188.389 131.713 188.389Z" fill="#949ABB"/>
<path d="M131.713 167.502C133.831 167.502 135.547 165.784 135.547 163.666C135.547 161.547 133.831 159.829 131.713 159.829C129.595 159.829 127.879 161.547 127.879 163.666C127.879 165.784 129.595 167.502 131.713 167.502Z" fill="#949ABB"/>
<path d="M163.24 195.636H100.186V217.376H163.24V195.636Z" fill="#C0BCCF"/>
<path d="M131.713 209.703C133.831 209.703 135.547 207.985 135.547 205.866C135.547 203.747 133.831 202.03 131.713 202.03C129.595 202.03 127.879 203.747 127.879 205.866C127.879 207.985 129.595 209.703 131.713 209.703Z" fill="#949ABB"/>
<path d="M163.24 217.376H100.186V239.115H163.24V217.376Z" fill="#C0BCCF"/>
<path d="M131.713 231.442C133.831 231.442 135.547 229.725 135.547 227.606C135.547 225.487 133.831 223.77 131.713 223.77C129.595 223.77 127.879 225.487 127.879 227.606C127.879 229.725 129.595 231.442 131.713 231.442Z" fill="#949ABB"/>
<path d="M163.24 239.115H100.186V260.855H163.24V239.115Z" fill="#C0BCCF"/>
<path d="M131.713 253.182C133.831 253.182 135.547 251.464 135.547 249.346C135.547 247.227 133.831 245.509 131.713 245.509C129.595 245.509 127.879 247.227 127.879 249.346C127.879 251.464 129.595 253.182 131.713 253.182Z" fill="#949ABB"/>
<path opacity="0.1" d="M163.24 194.357H100.186V196.062H163.24V194.357Z" fill="black"/>
<path opacity="0.1" d="M163.24 173.044H100.186V174.749H163.24V173.044Z" fill="black"/>
<path opacity="0.1" d="M163.24 216.097H100.186V217.802H163.24V216.097Z" fill="black"/>
<path opacity="0.1" d="M163.24 237.836H100.186V239.541H163.24V237.836Z" fill="black"/>
<path d="M65.5779 245.207C65.5779 245.207 64.1719 203.535 41.6384 179.988C32.1802 170.107 25.9684 157.557 24.3239 143.976C23.5551 137.531 23.3783 131.029 23.7956 124.551" stroke="#535461" stroke-width="2" stroke-miterlimit="10"/>
<path d="M9.68067 109.64C11.223 114.295 24.1151 124.986 24.1151 124.986C24.1151 124.986 28.0645 108.698 26.5223 104.048C25.7816 101.813 24.184 99.9648 22.0811 98.9087C19.9782 97.8527 17.5421 97.6758 15.3087 98.4168C13.0754 99.1579 11.2278 100.756 10.1723 102.86C9.11684 104.964 8.94 107.402 9.68067 109.636V109.64Z" fill="#949ABB"/>
<path d="M4.30399 140.029C8.1384 143.098 24.7542 145.068 24.7542 145.068C24.7542 145.068 19.2156 129.249 15.3812 126.184C13.5456 124.711 11.2003 124.028 8.86125 124.285C6.52221 124.542 4.38101 125.718 2.90869 127.554C1.43637 129.391 0.753546 131.737 1.01042 134.078C1.2673 136.418 2.44283 138.56 4.27843 140.033L4.30399 140.029Z" fill="#949ABB"/>
<path d="M19.5138 183.871C24.3622 184.587 39.7127 177.903 39.7127 177.903C39.7127 177.903 26.9526 167.029 22.1085 166.309C19.7808 165.964 17.4117 166.559 15.5225 167.963C13.6333 169.366 12.3787 171.463 12.0346 173.792C11.6905 176.121 12.2852 178.491 13.6879 180.381C15.0905 182.271 17.1862 183.527 19.5138 183.871Z" fill="#949ABB"/>
<path d="M38.4814 214.451C43.138 215.977 59.4002 211.97 59.4002 211.97C59.4002 211.97 48.6596 199.11 44.0029 197.584C41.7673 196.849 39.3315 197.033 37.2314 198.095C35.1312 199.157 33.5388 201.01 32.8043 203.247C32.0698 205.484 32.2536 207.921 33.315 210.022C34.3765 212.123 36.2287 213.716 38.4643 214.451H38.4814Z" fill="#949ABB"/>
<path d="M42.7418 140.102C40.4795 144.45 26.0536 152.966 26.0536 152.966C26.0536 152.966 24.7414 136.261 27.0037 131.909C27.5414 130.875 28.2773 129.957 29.1695 129.208C30.0617 128.458 31.0927 127.892 32.2036 127.541C33.3145 127.191 34.4836 127.062 35.644 127.164C36.8045 127.265 37.9337 127.594 38.9671 128.132C40.0004 128.67 40.9178 129.406 41.6668 130.299C42.4157 131.192 42.9816 132.223 43.3321 133.335C43.6827 134.446 43.8109 135.616 43.7096 136.777C43.6084 137.938 43.2795 139.068 42.7418 140.102Z" fill="#949ABB"/>
<path d="M64.4744 176.147C61.015 179.621 44.7059 183.423 44.7059 183.423C44.7059 183.423 48.4509 167.089 51.9061 163.615C53.5666 161.947 55.8211 161.008 58.1737 161.003C60.5263 160.999 62.7843 161.93 64.451 163.591C66.1177 165.252 67.0565 167.508 67.0609 169.862C67.0653 172.216 66.1349 174.475 64.4744 176.143V176.147Z" fill="#949ABB"/>
<path d="M80.792 214.081C77.9716 218.087 62.5359 224.597 62.5359 224.597C62.5359 224.597 63.4647 207.866 66.2894 203.854C66.9429 202.86 67.7896 202.007 68.7792 201.347C69.7689 200.686 70.8811 200.232 72.0498 200.01C73.2185 199.789 74.4198 199.805 75.5823 200.057C76.7447 200.31 77.8446 200.793 78.8164 201.48C79.7882 202.166 80.6121 203.041 81.239 204.052C81.866 205.064 82.2833 206.191 82.466 207.367C82.6487 208.543 82.5932 209.744 82.3027 210.898C82.0122 212.052 81.4926 213.136 80.7749 214.085L80.792 214.081Z" fill="#949ABB"/>
<path d="M60.6272 227.96C60.6272 227.96 73.4086 209.357 71.1676 191.855C70.1801 184.52 71.5973 177.062 75.2065 170.601C76.9423 167.543 78.9545 164.651 81.218 161.961" stroke="#535461" stroke-width="2" stroke-miterlimit="10"/>
<path d="M79.8717 150.937C79.0494 153.461 81.2223 162.268 81.2223 162.268C81.2223 162.268 88.1796 156.445 89.0019 153.926C89.1977 153.326 89.2735 152.693 89.225 152.064C89.1765 151.435 89.0046 150.822 88.7192 150.259C88.4338 149.696 88.0403 149.195 87.5614 148.785C87.0825 148.374 86.5274 148.062 85.9279 147.866C84.7172 147.47 83.399 147.572 82.2632 148.149C81.1274 148.726 80.2672 149.73 79.8717 150.942V150.937Z" fill="#949ABB"/>
<path d="M67.7592 162.438C68.4366 164.996 75.0488 171.215 75.0488 171.215C75.0488 171.215 77.7244 162.545 77.047 159.979C76.8856 159.368 76.6056 158.796 76.2231 158.294C75.8406 157.792 75.3631 157.371 74.8177 157.053C74.2723 156.736 73.6699 156.529 73.0447 156.445C72.4195 156.361 71.7838 156.4 71.174 156.562C70.5641 156.723 69.992 157.004 69.4904 157.386C68.9887 157.769 68.5673 158.247 68.2502 158.792C67.9332 159.338 67.7266 159.941 67.6423 160.566C67.5581 161.192 67.5978 161.828 67.7592 162.438Z" fill="#949ABB"/>
<path d="M60.2864 186.424C62.1653 188.296 71.0057 190.32 71.0057 190.32C71.0057 190.32 68.9437 181.484 67.0605 179.612C66.1566 178.714 64.9328 178.211 63.6584 178.215C62.384 178.219 61.1634 178.729 60.2651 179.634C59.3668 180.538 58.8644 181.763 58.8684 183.038C58.8724 184.313 59.3824 185.534 60.2864 186.433V186.424Z" fill="#949ABB"/>
<path d="M58.7186 205.866C60.2566 208.027 68.6284 211.519 68.6284 211.519C68.6284 211.519 68.0873 202.46 66.5493 200.299C65.8114 199.26 64.6913 198.557 63.4353 198.344C62.1793 198.132 60.8903 198.427 59.8518 199.165C58.8134 199.904 58.1107 201.024 57.8981 202.281C57.6856 203.538 57.9807 204.827 58.7186 205.866Z" fill="#949ABB"/>
<path d="M84.473 174.842C82.0914 176.01 73.072 175.073 73.072 175.073C73.072 175.073 77.8693 167.374 80.2552 166.223C80.8216 165.946 81.4372 165.783 82.0666 165.744C82.6961 165.704 83.3271 165.789 83.9237 165.994C84.5203 166.199 85.0708 166.519 85.5437 166.936C86.0166 167.354 86.4027 167.86 86.6799 168.427C86.9572 168.994 87.1201 169.61 87.1594 170.24C87.1988 170.869 87.1137 171.501 86.9092 172.098C86.7047 172.695 86.3846 173.245 85.9674 173.718C85.5501 174.192 85.0438 174.578 84.4773 174.855L84.473 174.842Z" fill="#949ABB"/>
<path d="M82.3513 197.533C79.7269 197.929 71.419 194.357 71.419 194.357C71.419 194.357 78.2996 188.449 80.924 188.048C82.1834 187.857 83.4672 188.173 84.4931 188.929C85.519 189.684 86.2029 190.817 86.3945 192.076C86.586 193.336 86.2694 194.621 85.5144 195.647C84.7593 196.674 83.6277 197.358 82.3683 197.55L82.3513 197.533Z" fill="#949ABB"/>
<path d="M77.2601 219.302C74.7421 220.155 65.9272 218.023 65.9272 218.023C65.9272 218.023 71.713 211.037 74.2309 210.197C75.4399 209.795 76.759 209.89 77.898 210.462C79.0369 211.033 79.9025 212.033 80.3042 213.243C80.7059 214.453 80.6108 215.772 80.0399 216.912C79.4691 218.051 78.4691 218.917 77.2601 219.319V219.302Z" fill="#949ABB"/>
<path opacity="0.5" d="M79.8717 150.937C79.0494 153.461 81.2223 162.268 81.2223 162.268C81.2223 162.268 88.1796 156.445 89.0019 153.926C89.1977 153.326 89.2735 152.693 89.225 152.064C89.1765 151.435 89.0046 150.822 88.7192 150.259C88.4338 149.696 88.0403 149.195 87.5614 148.785C87.0825 148.374 86.5274 148.062 85.9279 147.866C84.7172 147.47 83.399 147.572 82.2632 148.149C81.1274 148.726 80.2672 149.73 79.8717 150.942V150.937Z" fill="white"/>
<path opacity="0.5" d="M67.7592 162.438C68.4366 164.996 75.0488 171.215 75.0488 171.215C75.0488 171.215 77.7244 162.545 77.047 159.979C76.8856 159.368 76.6056 158.796 76.2231 158.294C75.8406 157.792 75.3631 157.371 74.8177 157.053C74.2723 156.736 73.6699 156.529 73.0447 156.445C72.4195 156.361 71.7838 156.4 71.174 156.562C70.5641 156.723 69.992 157.004 69.4904 157.386C68.9887 157.769 68.5673 158.247 68.2502 158.792C67.9332 159.338 67.7266 159.941 67.6423 160.566C67.5581 161.192 67.5978 161.828 67.7592 162.438Z" fill="white"/>
<path opacity="0.5" d="M60.2864 186.424C62.1653 188.296 71.0057 190.32 71.0057 190.32C71.0057 190.32 68.9437 181.484 67.0605 179.612C66.1566 178.714 64.9328 178.211 63.6584 178.215C62.384 178.219 61.1634 178.729 60.2651 179.634C59.3668 180.538 58.8644 181.763 58.8684 183.038C58.8724 184.313 59.3824 185.534 60.2864 186.433V186.424Z" fill="white"/>
<path opacity="0.5" d="M58.7186 205.866C60.2566 208.027 68.6284 211.519 68.6284 211.519C68.6284 211.519 68.0873 202.46 66.5493 200.299C65.8114 199.26 64.6913 198.557 63.4353 198.344C62.1793 198.132 60.8903 198.427 59.8518 199.165C58.8134 199.904 58.1107 201.024 57.8981 202.281C57.6856 203.538 57.9807 204.827 58.7186 205.866Z" fill="white"/>
<path opacity="0.5" d="M84.473 174.842C82.0914 176.01 73.072 175.073 73.072 175.073C73.072 175.073 77.8693 167.374 80.2552 166.223C80.8216 165.946 81.4372 165.783 82.0666 165.744C82.6961 165.704 83.3271 165.789 83.9237 165.994C84.5203 166.199 85.0708 166.519 85.5437 166.936C86.0166 167.354 86.4027 167.86 86.6799 168.427C86.9572 168.994 87.1201 169.61 87.1594 170.24C87.1988 170.869 87.1137 171.501 86.9092 172.098C86.7047 172.695 86.3846 173.245 85.9674 173.718C85.5501 174.192 85.0438 174.578 84.4773 174.855L84.473 174.842Z" fill="white"/>
<path opacity="0.5" d="M82.3513 197.533C79.7269 197.929 71.419 194.357 71.419 194.357C71.419 194.357 78.2996 188.449 80.924 188.048C82.1834 187.857 83.4672 188.173 84.4931 188.929C85.519 189.684 86.2029 190.817 86.3945 192.076C86.586 193.336 86.2694 194.621 85.5144 195.647C84.7593 196.674 83.6277 197.358 82.3683 197.55L82.3513 197.533Z" fill="white"/>
<path opacity="0.5" d="M77.2601 219.302C74.7421 220.155 65.9272 218.023 65.9272 218.023C65.9272 218.023 71.713 211.037 74.2309 210.197C75.4399 209.795 76.759 209.89 77.898 210.462C79.0369 211.033 79.9025 212.033 80.3042 213.243C80.7059 214.453 80.6108 215.772 80.0399 216.912C79.4691 218.051 78.4691 218.917 77.2601 219.319V219.302Z" fill="white"/>
<path d="M84.277 278.4H47.9226L38.835 222.93H93.3689L84.277 278.4Z" fill="#474059"/>
<path opacity="0.1" d="M86.4072 222.93L77.9162 274.764H47.3261L47.9225 278.4H84.277L93.3688 222.93H86.4072Z" fill="black"/>
<path d="M372.855 140.647H98.9074V153.435H372.855V140.647Z" fill="#C0BCCF"/>
<path d="M206.271 77.9346H167.075V119.381H206.271V77.9346Z" fill="#E8EAF1"/>
<path d="M205.419 78.8383H167.927V118.481H205.419V78.8383Z" fill="white"/>
<path d="M201.363 107.731C201.887 103.579 200.839 103.319 200.839 103.319L199.335 102.598C199.359 102.355 199.369 102.11 199.365 101.865C199.376 101.662 199.376 101.459 199.365 101.256C199.216 99.6189 198.244 98.1909 197.554 96.6989C196.92 95.3212 196.52 93.8475 196.37 92.3382C196.186 90.4754 196.37 88.5402 195.731 86.7967C195.136 85.3949 194.228 84.1481 193.076 83.1521C191.856 81.9231 190.409 80.9417 188.816 80.262C187.201 79.5831 185.392 79.5314 183.742 80.1171C182.293 80.6883 181.185 81.8222 180.086 82.9433C179.294 83.6909 178.6 84.5359 178.02 85.4583C177.412 86.6475 177.018 87.9346 176.857 89.2606C176.511 91.3656 176.272 93.4869 176.141 95.6162C176.026 97.3895 175.851 99.4058 174.437 100.497C173.742 101.03 172.771 101.328 172.451 102.134C172.363 102.376 172.328 102.635 172.349 102.893C172.34 103.108 172.355 103.324 172.392 103.536C172.392 103.66 172.439 103.784 172.464 103.907C172.057 104.993 171.716 106.101 171.442 107.228C170.479 111.068 169.777 114.968 169.341 118.903H194.614C194.853 118.932 195.095 118.932 195.334 118.903H201.908L201.363 107.731Z" fill="url(#paint0_linear)"/>
<path d="M194.005 90.5138H179.498V101.465H194.005V90.5138Z" fill="#B96B6B"/>
<path opacity="0.1" d="M194.005 90.5138H179.498V101.465H194.005V90.5138Z" fill="black"/>
<path d="M194.516 101.972L188.918 109.866L183.043 109.359C183.043 109.359 175.408 109.866 180.487 104.009C182.932 101.196 183.733 98.8516 183.895 97.1892C184.038 96.2261 183.912 95.2424 183.533 94.346L189.898 93.5829C189.612 94.4404 189.577 95.3617 189.796 96.2386C190.622 99.5379 194.516 101.972 194.516 101.972Z" fill="#FFB9B9"/>
<path opacity="0.1" d="M189.83 96.2258C188.999 96.8537 188.027 97.2679 186.999 97.4321C185.971 97.5964 184.918 97.5056 183.933 97.1679C184.076 96.2048 183.951 95.2211 183.571 94.3247L189.936 93.5616C189.647 94.4213 189.61 95.3458 189.83 96.2258Z" fill="black"/>
<path d="M185.987 97.2617C189.502 97.2617 192.352 94.4104 192.352 90.8932C192.352 87.376 189.502 84.5247 185.987 84.5247C182.471 84.5247 179.622 87.376 179.622 90.8932C179.622 94.4104 182.471 97.2617 185.987 97.2617Z" fill="#FFB9B9"/>
<path opacity="0.1" d="M186.37 107.825C186.37 107.825 188.662 105.024 188.662 102.731C188.976 102.123 189.408 101.583 189.933 101.144C190.457 100.705 191.064 100.375 191.717 100.173C194.009 99.41 193.754 100.173 193.754 100.173L195.279 106.286L194.772 117.237L195.028 118.515H176.188L177.466 113.421L177.206 109.103L178.224 102.483L181.279 100.702L183.571 103.758L186.37 107.825Z" fill="black"/>
<path d="M186.37 108.085C186.37 108.085 188.662 105.284 188.662 102.991C188.976 102.383 189.408 101.843 189.933 101.404C190.457 100.965 191.064 100.635 191.717 100.433C194.009 99.6701 193.754 100.433 193.754 100.433L195.279 106.546L194.772 117.497L195.028 118.775H176.188L177.466 113.681L177.21 109.351L178.229 102.731L181.283 100.949L183.575 104.005L186.37 108.085Z" fill="#FEC5D9"/>
<path opacity="0.1" d="M182.809 100.19L174.918 101.469C174.918 101.469 173.64 101.213 172.119 107.326C171.185 111.095 170.505 114.923 170.083 118.784H179.924C179.924 118.784 180.516 108.596 182.054 107.833L184.185 104.538C184.185 104.538 180.776 104.27 181.279 102.488C181.782 100.706 182.809 100.19 182.809 100.19Z" fill="black"/>
<path d="M182.553 100.19L174.663 101.469C174.663 101.469 173.384 101.213 171.863 107.326C170.933 111.094 170.255 114.921 169.835 118.78H179.677C179.677 118.78 180.269 108.592 181.807 107.829L183.938 104.534C183.938 104.534 180.529 104.265 181.032 102.483C181.535 100.702 182.553 100.19 182.553 100.19Z" fill="#747B9C"/>
<path opacity="0.1" d="M191.717 99.4271L200.115 103.502C200.115 103.502 201.133 103.758 200.622 107.833L201.129 118.784H192.096C192.783 115.347 192.913 111.822 192.48 108.345C192.035 105.391 191.78 102.413 191.717 99.4271Z" fill="black"/>
<path d="M191.99 99.4271L200.387 103.502C200.387 103.502 201.405 103.758 200.894 107.833L201.401 118.784H192.352C193.039 115.347 193.168 111.822 192.735 108.345C192.296 105.391 192.047 102.412 191.99 99.4271Z" fill="#747B9C"/>
<path opacity="0.1" d="M183.895 88.1139C183.784 89.1455 183.077 89.9937 182.489 90.8505C181.901 91.7073 181.39 92.7645 181.718 93.7492C181.846 94.1328 182.097 94.4738 182.187 94.8703C182.34 95.5523 181.995 96.2556 182.054 96.9504C182.135 97.9053 182.945 98.6129 183.392 99.4569C184.338 101.243 183.614 103.455 182.591 105.194C181.569 106.934 180.231 108.583 179.894 110.574C179.583 112.415 180.18 114.278 180.823 116.03C180.992 116.369 181.043 116.755 180.968 117.126C180.772 117.714 180.035 117.889 179.413 117.931C178.733 117.974 178.052 117.974 177.372 117.931C177.115 117.936 176.86 117.882 176.627 117.774C176.158 117.518 176.017 116.921 175.843 116.427C175.668 115.932 175.285 115.37 174.752 115.425C174.403 115.463 174.13 115.762 173.785 115.821C173.625 115.836 173.464 115.812 173.316 115.751C173.168 115.69 173.036 115.594 172.933 115.472C172.298 114.786 172.451 113.677 172.869 112.842C173.286 112.006 173.926 111.277 174.202 110.386C174.888 108.17 173.171 105.975 172.809 103.681C172.73 103.307 172.75 102.919 172.869 102.556C173.18 101.763 174.122 101.469 174.795 100.949C176.171 99.8789 176.341 97.8968 176.452 96.1576C176.569 94.069 176.791 91.9876 177.117 89.9213C177.272 88.6221 177.653 87.3599 178.241 86.1914C178.802 85.2876 179.475 84.4583 180.244 83.7233C181.292 82.6321 182.374 81.5153 183.788 80.9526C185.386 80.3773 187.143 80.4276 188.705 81.0933C190.257 81.7686 191.662 82.7401 192.842 83.9535C193.954 84.9361 194.829 86.1591 195.398 87.5299C196.025 89.2563 195.824 91.1575 196.016 92.9862C196.163 94.4602 196.55 95.9002 197.162 97.2488C197.831 98.7152 198.773 100.118 198.917 101.725C199.032 103.003 198.615 104.282 198.402 105.54C198.027 107.744 198.253 109.999 198.474 112.219C198.506 112.757 198.618 113.288 198.807 113.792C199.177 114.5 199.694 115.12 200.323 115.612C200.394 115.662 200.454 115.725 200.5 115.799C200.546 115.872 200.577 115.953 200.592 116.039C200.587 116.112 200.567 116.183 200.532 116.248C200.498 116.313 200.45 116.369 200.391 116.414C199.62 117.1 198.287 116.593 197.452 117.202C197.219 117.406 197.006 117.631 196.817 117.876C196.462 118.262 196.008 118.543 195.505 118.688C195.001 118.834 194.467 118.838 193.961 118.701C193.456 118.563 192.997 118.29 192.636 117.91C192.275 117.53 192.025 117.058 191.913 116.546C191.696 115.549 192.02 114.525 192.143 113.511C192.527 110.31 190.891 107.266 189.587 104.321C188.973 102.944 188.415 101.452 188.641 99.9599C188.824 98.7621 189.493 97.7092 189.983 96.6009C190.967 94.3886 191.261 91.7969 190.409 89.5249C189.771 87.7925 188.476 86.3818 186.805 85.5989C186.2 85.3261 185.339 84.951 184.704 85.3176C183.661 85.9144 183.98 87.1591 183.895 88.1139Z" fill="black"/>
<path d="M183.895 87.8582C183.784 88.8897 183.077 89.738 182.489 90.5948C181.901 91.4516 181.39 92.5088 181.718 93.4934C181.846 93.8771 182.097 94.2181 182.187 94.6145C182.34 95.2965 181.995 95.9999 182.054 96.6947C182.135 97.6496 182.945 98.3571 183.392 99.2012C184.338 100.987 183.614 103.2 182.591 104.939C181.569 106.678 180.231 108.328 179.894 110.318C179.583 112.16 180.18 114.023 180.823 115.774C180.992 116.113 181.043 116.499 180.968 116.87C180.772 117.458 180.035 117.633 179.413 117.676C178.733 117.718 178.052 117.718 177.372 117.676C177.115 117.68 176.86 117.626 176.627 117.518C176.158 117.262 176.017 116.665 175.843 116.171C175.668 115.676 175.285 115.114 174.752 115.169C174.403 115.208 174.13 115.506 173.785 115.566C173.625 115.58 173.464 115.556 173.316 115.495C173.168 115.434 173.036 115.339 172.933 115.216C172.298 114.53 172.451 113.421 172.869 112.586C173.286 111.751 173.926 111.022 174.202 110.131C174.888 107.914 173.171 105.719 172.809 103.425C172.73 103.052 172.75 102.663 172.869 102.3C173.18 101.507 174.122 101.213 174.795 100.693C176.171 99.6232 176.341 97.641 176.452 95.9018C176.577 93.8114 176.808 91.7286 177.142 89.6613C177.298 88.3621 177.678 87.0999 178.267 85.9314C178.828 85.0276 179.501 84.1983 180.269 83.4633C181.317 82.3721 182.4 81.2553 183.814 80.6926C185.412 80.1173 187.168 80.1675 188.731 80.8333C190.277 81.5019 191.679 82.4646 192.859 83.6679C193.971 84.6505 194.846 85.8735 195.415 87.2443C196.042 88.9707 195.841 90.8719 196.033 92.7006C196.18 94.1746 196.567 95.6146 197.179 96.9632C197.848 98.4296 198.79 99.832 198.934 101.439C199.049 102.718 198.632 103.997 198.419 105.254C198.044 107.458 198.27 109.713 198.491 111.934C198.519 112.474 198.628 113.007 198.815 113.515C199.186 114.223 199.703 114.843 200.332 115.335C200.403 115.385 200.463 115.448 200.509 115.522C200.555 115.595 200.586 115.676 200.6 115.762C200.595 115.835 200.575 115.906 200.541 115.971C200.506 116.036 200.458 116.092 200.4 116.137C199.629 116.823 198.295 116.316 197.46 116.925C197.227 117.129 197.015 117.354 196.825 117.599C196.471 117.985 196.017 118.266 195.513 118.411C195.01 118.556 194.476 118.561 193.97 118.424C193.464 118.286 193.006 118.013 192.644 117.633C192.283 117.253 192.033 116.781 191.922 116.269C191.704 115.271 192.028 114.248 192.152 113.234C192.535 110.033 190.899 106.989 189.595 104.044C188.982 102.667 188.424 101.175 188.65 99.6828C188.833 98.485 189.502 97.4321 189.992 96.3238C190.976 94.1115 191.27 91.5198 190.418 89.2478C189.78 87.5154 188.485 86.1047 186.813 85.3219C186.208 85.049 185.348 84.6739 184.713 85.0405C183.661 85.6586 183.98 86.9076 183.895 87.8582Z" fill="#B96B6B"/>
<path d="M245.041 80.5434H214.366V81.8222H245.041V80.5434Z" fill="#E8EAF1"/>
<path d="M245.041 83.9536H214.366V85.2324H245.041V83.9536Z" fill="#E8EAF1"/>
<path d="M245.041 87.3637H214.366V88.6425H245.041V87.3637Z" fill="#E8EAF1"/>
<path d="M245.041 90.7738H214.366V92.0526H245.041V90.7738Z" fill="#E8EAF1"/>
<path d="M245.041 94.184H214.366V95.4628H245.041V94.184Z" fill="#E8EAF1"/>
<path d="M245.041 97.5941H214.366V98.8729H245.041V97.5941Z" fill="#E8EAF1"/>
<path d="M245.041 101.004H214.366V102.283H245.041V101.004Z" fill="#E8EAF1"/>
<path d="M245.041 104.414H214.366V105.693H245.041V104.414Z" fill="#E8EAF1"/>
<path d="M245.041 107.825H214.366V109.103H245.041V107.825Z" fill="#E8EAF1"/>
<path d="M245.041 111.235H214.366V112.514H245.041V111.235Z" fill="#E8EAF1"/>
<path d="M245.041 114.645H214.366V115.924H245.041V114.645Z" fill="#E8EAF1"/>
<path d="M323.157 181.497C325.669 175.604 326.303 169.079 324.971 162.813C323.416 155.33 322.401 147.744 321.934 140.114C321.448 132.804 320.383 128.068 319.22 124.999C319.22 124.999 319.667 115.05 312.931 109.862C306.196 104.674 290.475 96.456 290.475 96.456L292.047 90.0321H291.983C292.456 89.8813 292.91 89.6737 293.333 89.414C293.782 89.1336 294.19 88.7938 294.548 88.4038C297.206 86.0764 297.244 81.8052 298.506 78.4035C299.477 75.7862 301.296 73.5441 302.6 71.0632C304.973 66.5447 305.527 60.999 303.32 56.4038C301.113 51.8086 295.885 48.5051 290.666 49.0976C288.98 49.3533 287.328 49.798 285.741 50.4233C281.962 51.7532 278.98 47.9893 275.201 49.3235C273.305 49.9927 266.228 50.7174 264.695 52.6655C264.343 52.8947 264.086 53.2427 263.97 53.6459C263.57 55.5385 267.034 59.328 269.603 62.3545C267.561 64.8351 266.444 67.9479 266.441 71.1612C266.441 71.2337 266.441 71.3062 266.441 71.3786C266.441 71.4511 266.441 71.5236 266.441 71.596C266.446 73.4596 266.823 75.3035 267.551 77.0188C268.279 78.7342 269.343 80.2863 270.68 81.5835C270.463 83.4847 270.139 85.6245 269.675 87.8155H269.364C269.364 87.8155 267.566 95.5992 261.729 95.5992C260.17 95.5992 258.04 95.5054 255.765 95.3733C248.889 95.0255 242.003 95.8191 235.387 97.722C233.112 98.3571 230.607 98.4126 228.51 96.8993C223.5 93.2803 218.106 84.0644 217.369 82.7813C217.932 79.0429 217.855 72.1971 210.097 70.9524C201.001 69.4945 201.499 80.0404 206.731 86.7499C206.602 87.0842 206.516 87.4337 206.475 87.79C206.028 93.4124 211.418 103.792 212.764 105.088C214.11 106.384 214.144 114.598 223.56 116.776C232.975 118.954 239.75 119.803 240.176 130.617C240.602 141.432 249.608 152.672 245.118 165.217C242.421 172.745 243.124 176.688 244.117 178.636C244.036 178.892 243.959 179.144 243.874 179.404C242.851 182.511 241.582 185.631 240.176 187.503C239.852 187.929 239.537 188.389 239.234 188.867C235.579 191.237 231.761 193.888 230.287 195.504C227.143 198.965 228.489 212.802 230.287 218.424C232.085 224.047 243.311 258.212 243.311 258.212H243.737L243.874 259.065L244.325 261.895C244.178 261.815 244.036 261.727 243.899 261.631C243.812 261.57 243.713 261.529 243.608 261.51C243.503 261.492 243.395 261.497 243.293 261.524C243.19 261.552 243.095 261.602 243.013 261.67C242.932 261.739 242.866 261.824 242.821 261.921L240.627 266.823C240.627 266.823 231.646 262.939 231.186 272.023C231.186 272.385 231.186 272.731 231.186 273.063C231.165 277.893 233.823 279.692 236.103 280.34C238.196 280.902 240.177 281.822 241.957 283.059C244.117 284.611 247.406 286.197 251.146 285.335C251.902 285.166 252.677 285.095 253.451 285.122C255.066 285.169 257.797 284.696 257.712 281.09C257.729 280.806 257.729 280.521 257.712 280.237C257.712 280.237 255.816 272.935 255.735 269.581C255.726 269.239 255.786 268.9 255.914 268.583C256.233 267.969 256.34 266.81 256.31 265.569C256.31 264.486 256.255 263.403 256.144 262.326C256.131 262.224 256.087 262.129 256.019 262.053C255.951 261.976 255.861 261.923 255.761 261.899C255.662 261.876 255.557 261.883 255.462 261.92C255.367 261.958 255.285 262.023 255.228 262.108L255.155 262.206C254.866 261.247 254.529 260.126 254.214 259.069L253.954 258.216H254.559C254.559 258.216 250.959 236.984 252.305 235.279C253.187 234.149 251.764 220.632 250.673 211.408C261.614 212.103 279.052 210.167 290.982 209.571C293.261 209.46 295.487 208.839 297.496 207.755C296.418 216.502 294.415 233.983 295.421 235.275C296.767 237.005 293.176 258.195 293.176 258.195H293.717L293.521 258.843H293.589C293.257 259.964 292.895 261.17 292.583 262.198L292.511 262.1C292.454 262.015 292.372 261.949 292.277 261.912C292.182 261.874 292.077 261.867 291.978 261.891C291.878 261.914 291.788 261.968 291.72 262.044C291.651 262.12 291.608 262.215 291.595 262.317C291.484 263.395 291.429 264.477 291.429 265.561C291.429 266.801 291.51 267.961 291.825 268.575C291.953 268.891 292.013 269.231 292.004 269.572C291.923 272.948 290.027 280.229 290.027 280.229C290.01 280.513 290.01 280.797 290.027 281.081C289.938 284.705 292.669 285.165 294.288 285.114C295.062 285.086 295.837 285.158 296.593 285.327C300.333 286.179 303.622 284.598 305.782 283.051C307.562 281.813 309.543 280.893 311.636 280.331C313.916 279.683 316.574 277.884 316.553 273.055C316.553 272.722 316.553 272.377 316.553 272.015C316.08 262.939 307.099 266.823 307.099 266.823L304.892 261.904C304.847 261.807 304.782 261.722 304.7 261.653C304.619 261.585 304.523 261.535 304.421 261.507C304.318 261.48 304.21 261.475 304.105 261.493C304.001 261.512 303.901 261.553 303.814 261.614C303.677 261.71 303.535 261.798 303.388 261.878L303.98 258.182H304.406C304.406 258.182 315.633 224.017 317.43 218.394C319.228 212.772 320.575 198.931 317.43 195.474C315.944 193.837 312.054 191.143 308.36 188.752C311.518 190.648 314.548 192.75 317.43 195.043L323.157 181.497ZM303.763 185.832L302.336 184.979C302.039 184.467 301.677 183.995 301.258 183.577C300.862 183.192 300.494 182.779 300.159 182.341C299.281 179.685 296.039 168.7 300.363 163.035C303.503 158.909 303.742 150.937 303.495 145.677C305.625 156.125 308.607 170.827 308.897 173.845C309.25 177.613 305.39 183.543 303.763 185.832Z" fill="url(#paint1_linear)"/>
<path d="M302.336 255.1L300.632 266.183L290.406 264.052C290.406 264.052 292.537 256.805 292.963 255.1C293.389 253.395 293.389 255.1 293.389 255.1H302.336Z" fill="#D6E6F9"/>
<path d="M256.323 264.052L246.098 266.183L244.918 258.51L244.393 255.1H253.34C253.34 255.1 253.34 253.395 253.766 255.1C253.92 255.714 254.295 257.053 254.717 258.51C255.471 261.094 256.323 264.052 256.323 264.052Z" fill="#D6E6F9"/>
<path opacity="0.1" d="M254.725 258.51H244.926L244.402 255.1H253.349C253.349 255.1 253.349 253.395 253.775 255.1C253.928 255.714 254.303 257.053 254.725 258.51Z" fill="black"/>
<path opacity="0.1" d="M292.021 258.297H301.82L302.344 254.887H293.389C293.389 254.887 293.389 253.182 292.963 254.887C292.818 255.501 292.443 256.839 292.021 258.297Z" fill="black"/>
<path d="M312.135 120.826C312.135 120.826 317.673 121.252 318.951 141.287C319.4 148.804 320.37 156.282 321.853 163.666C323.119 169.832 322.526 176.235 320.149 182.063L314.691 195.423C314.691 195.423 304.466 186.897 301.058 187.324C301.058 187.324 307.022 179.225 306.596 174.536C306.17 169.847 299.353 136.171 299.353 136.171L312.135 120.826Z" fill="#D6E6F9"/>
<path d="M248.228 184.34C248.228 184.34 235.02 192.439 232.038 195.849C229.056 199.259 230.334 212.9 232.038 218.441C233.742 223.983 244.393 257.658 244.393 257.658H255.045C255.045 257.658 251.636 236.771 252.914 235.066C254.192 233.361 250.358 203.096 250.358 203.096L248.228 184.34Z" fill="#5F546F"/>
<path d="M298.501 184.34C298.501 184.34 311.709 192.439 314.691 195.849C317.673 199.259 316.395 212.9 314.691 218.441C312.987 223.983 302.336 257.658 302.336 257.658H291.685C291.685 257.658 295.093 236.771 293.815 235.066C292.537 233.361 296.371 203.096 296.371 203.096L298.501 184.34Z" fill="#5F546F"/>
<path opacity="0.1" d="M248.228 184.34C248.228 184.34 235.02 192.439 232.038 195.849C229.056 199.259 230.334 212.9 232.038 218.441C233.742 223.983 244.393 257.658 244.393 257.658H255.045C255.045 257.658 251.636 236.771 252.914 235.066C254.192 233.361 250.358 203.096 250.358 203.096L248.228 184.34Z" fill="black"/>
<path opacity="0.1" d="M298.501 184.34C298.501 184.34 311.709 192.439 314.691 195.849C317.673 199.259 316.395 212.9 314.691 218.441C312.987 223.983 302.336 257.658 302.336 257.658H291.685C291.685 257.658 295.093 236.771 293.815 235.066C292.537 233.361 296.371 203.096 296.371 203.096L298.501 184.34Z" fill="black"/>
<path d="M270.808 76.4939C270.808 76.4939 270.808 93.1183 264.844 101.644C258.879 110.169 292.111 102.922 292.111 102.922C290.598 101.808 289.478 100.24 288.915 98.4467C287.16 92.1933 286.495 81.1785 289.128 76.4939C292.963 69.6736 270.808 76.4939 270.808 76.4939Z" fill="#FFCED8"/>
<path opacity="0.1" d="M280.403 87.7899C288.168 87.7899 294.462 81.492 294.462 73.7231C294.462 65.9542 288.168 59.6562 280.403 59.6562C272.638 59.6562 266.343 65.9542 266.343 73.7231C266.343 81.492 272.638 87.7899 280.403 87.7899Z" fill="black"/>
<path d="M280.403 87.3637C288.168 87.3637 294.462 81.0658 294.462 73.2968C294.462 65.5279 288.168 59.23 280.403 59.23C272.638 59.23 266.343 65.5279 266.343 73.2968C266.343 81.0658 272.638 87.3637 280.403 87.3637Z" fill="#FFCED8"/>
<path d="M290.432 218.373C275.192 219.047 249.843 221.885 246 217.674C239.801 210.883 241.999 204.771 245.199 201.049C246.451 199.587 247.576 197.141 248.488 194.698C248.795 193.871 249.08 193.048 249.34 192.264C250.324 189.225 253.6 187.128 257.307 187.128H288.08C291.808 187.128 295.089 189.259 296.056 192.298C296.488 193.725 297.15 195.071 298.016 196.284C298.469 196.913 298.997 197.486 299.588 197.989C301.138 199.306 302.144 202.145 302.796 205.27C304.172 211.885 298.344 218.023 290.432 218.373Z" fill="#5F546F"/>
<path opacity="0.1" d="M290.432 218.373C275.192 219.047 249.843 221.885 246 217.674C239.801 210.883 241.999 204.771 245.199 201.049C246.451 199.587 247.576 197.141 248.488 194.698C248.795 193.871 249.08 193.048 249.34 192.264C250.324 189.225 253.6 187.128 257.307 187.128H288.08C291.808 187.128 295.089 189.259 296.056 192.298C296.488 193.725 297.15 195.071 298.016 196.284C298.469 196.913 298.997 197.486 299.588 197.989C301.138 199.306 302.144 202.145 302.796 205.27C304.172 211.885 298.344 218.023 290.432 218.373Z" fill="black"/>
<path opacity="0.1" d="M251.112 263.097C249.779 262.829 246.298 262.061 244.947 261.034C244.865 260.974 244.77 260.933 244.669 260.915C244.569 260.897 244.465 260.902 244.367 260.93C244.269 260.957 244.178 261.006 244.101 261.074C244.025 261.141 243.964 261.225 243.925 261.32L241.837 266.183C241.837 266.183 233.316 262.347 232.89 271.298C232.643 276.52 235.293 278.404 237.547 279.069C239.547 279.623 241.432 280.528 243.115 281.742C245.165 283.268 248.288 284.833 251.832 283.989C252.548 283.821 253.283 283.749 254.018 283.775C255.607 283.827 258.346 283.349 258.044 279.389C258.044 279.389 255.488 269.159 256.34 267.454C256.877 266.379 256.736 263.617 256.561 261.716C256.549 261.622 256.509 261.534 256.446 261.463C256.384 261.392 256.301 261.341 256.209 261.318C256.117 261.294 256.02 261.299 255.931 261.331C255.842 261.363 255.765 261.422 255.709 261.499C255.356 262.043 254.867 262.486 254.292 262.785C253.716 263.084 253.073 263.228 252.424 263.204C251.984 263.217 251.544 263.181 251.112 263.097Z" fill="black"/>
<path d="M251.112 263.523C249.779 263.255 246.298 262.487 244.947 261.46C244.865 261.4 244.77 261.36 244.669 261.342C244.569 261.323 244.465 261.328 244.367 261.356C244.269 261.383 244.178 261.433 244.101 261.5C244.025 261.568 243.964 261.652 243.925 261.746L241.837 266.61C241.837 266.61 233.316 262.773 232.89 271.725C232.643 276.947 235.293 278.831 237.547 279.496C239.547 280.05 241.432 280.955 243.115 282.168C245.165 283.694 248.288 285.259 251.832 284.415C252.548 284.247 253.283 284.176 254.018 284.202C255.607 284.253 258.346 283.775 258.044 279.815C258.044 279.815 255.488 269.585 256.34 267.88C256.877 266.806 256.736 264.043 256.561 262.142C256.549 262.048 256.509 261.96 256.446 261.889C256.384 261.818 256.301 261.767 256.209 261.744C256.117 261.72 256.02 261.725 255.931 261.757C255.842 261.79 255.765 261.848 255.709 261.925C255.356 262.469 254.867 262.912 254.292 263.211C253.716 263.51 253.073 263.654 252.424 263.63C251.984 263.643 251.544 263.607 251.112 263.523Z" fill="#BC8387"/>
<path opacity="0.1" d="M295.63 263.097C296.963 262.829 300.444 262.061 301.795 261.034C301.877 260.974 301.972 260.933 302.073 260.915C302.173 260.897 302.277 260.902 302.375 260.93C302.473 260.957 302.564 261.006 302.641 261.074C302.717 261.141 302.778 261.225 302.817 261.32L304.892 266.183C304.892 266.183 313.413 262.347 313.839 271.298C314.086 276.52 311.436 278.404 309.182 279.069C307.192 279.629 305.317 280.537 303.644 281.751C301.594 283.277 298.471 284.841 294.927 283.997C294.211 283.83 293.476 283.758 292.741 283.784C291.152 283.835 288.413 283.358 288.715 279.398C288.715 279.398 291.271 269.167 290.419 267.462C289.882 266.388 290.023 263.626 290.198 261.724C290.21 261.63 290.25 261.542 290.313 261.471C290.375 261.4 290.458 261.35 290.55 261.326C290.642 261.303 290.738 261.307 290.828 261.34C290.917 261.372 290.994 261.43 291.05 261.507C291.403 262.051 291.891 262.495 292.467 262.793C293.043 263.092 293.686 263.237 294.335 263.212C294.769 263.221 295.203 263.183 295.63 263.097Z" fill="black"/>
<path d="M295.63 263.523C296.963 263.255 300.444 262.487 301.795 261.46C301.877 261.4 301.972 261.36 302.073 261.342C302.173 261.323 302.277 261.328 302.375 261.356C302.473 261.383 302.564 261.433 302.641 261.5C302.717 261.568 302.778 261.652 302.817 261.746L304.892 266.61C304.892 266.61 313.413 262.773 313.839 271.725C314.086 276.947 311.436 278.831 309.182 279.496C307.192 280.056 305.317 280.963 303.644 282.177C301.594 283.703 298.471 285.267 294.927 284.423C294.211 284.256 293.476 284.184 292.741 284.21C291.152 284.261 288.413 283.784 288.715 279.824C288.715 279.824 291.271 269.593 290.419 267.888C289.882 266.814 290.023 264.052 290.198 262.151C290.21 262.057 290.25 261.968 290.313 261.897C290.375 261.826 290.458 261.776 290.55 261.752C290.642 261.729 290.738 261.734 290.828 261.766C290.917 261.798 290.994 261.857 291.05 261.933C291.403 262.478 291.891 262.921 292.467 263.22C293.043 263.518 293.686 263.663 294.335 263.638C294.769 263.647 295.203 263.609 295.63 263.523Z" fill="#BC8387"/>
<path d="M219.257 87.1505C219.257 87.1505 223.091 74.7888 212.866 73.0837C202.641 71.3786 205.197 86.298 212.866 91.8395C220.535 97.381 219.257 87.1505 219.257 87.1505Z" fill="#FFCED8"/>
<path opacity="0.1" d="M298.501 184.766C286.572 204.374 246.524 182.208 246.524 182.208C246.524 182.208 245.574 181.688 244.917 179.992C245.246 178.956 245.548 177.92 245.821 176.935C246.335 175.078 247.445 173.44 248.98 172.275C250.515 171.11 252.389 170.481 254.316 170.486H287.122C289.054 170.482 290.934 171.116 292.47 172.29C294.006 173.463 295.112 175.111 295.617 176.978C296.065 178.739 296.768 180.425 297.705 181.982C298.126 183.7 298.501 184.766 298.501 184.766Z" fill="black"/>
<path d="M271.66 89.7082H269.104C269.104 89.7082 267.4 97.381 261.861 97.381C260.383 97.381 258.363 97.2915 256.191 97.1551C249.661 96.8125 243.121 97.5954 236.857 99.4697C234.697 100.096 232.324 100.152 230.334 98.6598C225.221 94.8234 219.683 84.5929 219.683 84.5929C219.683 84.5929 209.884 84.1667 209.458 89.7082C209.032 95.2496 214.144 105.48 215.422 106.759C216.701 108.038 216.701 116.137 225.647 118.268C234.594 120.399 240.985 121.252 241.411 131.909C241.837 142.565 250.358 153.648 246.098 166.01C241.837 178.372 246.524 180.93 246.524 180.93C246.524 180.93 286.572 203.096 298.501 183.487C298.501 183.487 293.815 170.273 298.501 163.879C303.188 157.485 301.057 141.713 301.057 141.713L316.395 126.367C316.395 126.367 316.821 116.563 310.43 111.448C304.04 106.333 289.128 98.2335 289.128 98.2335L290.619 91.8992L271.66 89.7082Z" fill="#D6E6F9"/>
<path opacity="0.1" d="M272.121 77.6021C271.797 81.6133 271.925 86.1915 274.89 88.9153C276.347 90.2538 278.298 90.923 280.211 91.3877C282.226 91.8769 284.281 92.1809 286.35 92.2956C288.242 92.3979 290.257 92.2956 291.846 91.2854C295.101 89.1839 295.025 84.512 296.328 80.8588C297.249 78.2756 298.978 76.0718 300.214 73.6123C302.464 69.162 302.992 63.693 300.896 59.166C298.8 54.6391 293.845 51.3909 288.894 51.9834C287.286 52.2359 285.713 52.6751 284.207 53.2921C280.62 54.605 277.795 50.8922 274.208 52.2051C272.248 52.9212 264.46 53.7098 263.983 56.0415C263.416 58.8122 270.953 65.722 271.767 68.1475C272.836 71.2721 272.121 74.4051 272.121 77.6021Z" fill="black"/>
<path d="M272.547 77.1759C272.223 81.1871 272.351 85.7652 275.316 88.489C276.773 89.8275 278.724 90.4968 280.637 90.9614C282.652 91.4507 284.707 91.7546 286.777 91.8694C288.668 91.9717 290.683 91.8694 292.273 90.8591C295.527 88.7576 295.451 84.0857 296.755 80.4326C297.675 77.8494 299.405 75.6456 300.64 73.186C302.89 68.7358 303.418 63.2667 301.322 58.7398C299.226 54.2128 294.271 50.9646 289.32 51.5571C287.712 51.8096 286.14 52.2488 284.634 52.8658C281.046 54.1787 278.222 50.4659 274.634 51.7788C272.674 52.4949 264.886 53.2835 264.409 55.6152C263.842 58.386 271.379 65.2958 272.193 67.7212C273.262 70.8458 272.547 73.9789 272.547 77.1759Z" fill="#AE767A"/>
<path opacity="0.1" d="M266.343 95.2454C266.343 95.2454 268.9 96.3153 276.142 98.4466C283.385 100.578 288.924 98.4466 288.924 98.4466" fill="black"/>
<path opacity="0.1" d="M247.163 156.163C247.163 156.163 259.092 156.845 262.926 161.961C266.761 167.076 268.039 168.781 272.726 168.781C277.412 168.781 292.324 169.633 294.454 170.486" fill="black"/>
<path d="M279.278 285.34H272.155V293.486H279.278V285.34Z" fill="#C0BCCF"/>
<path d="M322.53 185.047H316.932V226.285H322.53V185.047Z" fill="#CB919B"/>
<path d="M319.982 225.773H307.772V227.299H319.982V225.773Z" fill="#CB919B"/>
<path d="M235.008 185.047H229.409V226.285H235.008V185.047Z" fill="#CB919B"/>
<path d="M242.638 225.773H230.428V227.299H242.638V225.773Z" fill="#CB919B"/>
<path d="M282.329 228.322H270.625V278.217H282.329V228.322Z" fill="#C0BCCF"/>
<path d="M276.735 210.432C308.262 211.531 309.302 199.447 309.302 199.447L307.265 165.938C306.758 113.75 276.735 121.44 276.735 121.44C276.735 121.44 246.711 113.767 246.204 165.938L244.168 199.447C244.168 199.447 245.186 211.531 276.735 210.432Z" fill="#CB919B"/>
<path opacity="0.1" d="M276.735 210.432C308.262 211.531 309.302 199.447 309.302 199.447L307.265 165.938C306.758 113.75 276.735 121.44 276.735 121.44C276.735 121.44 246.711 113.767 246.204 165.938L244.168 199.447C244.168 199.447 245.186 211.531 276.735 210.432Z" fill="white"/>
<path d="M275.882 208.339C305.953 209.387 306.92 197.865 306.92 197.865L304.981 165.925C304.496 116.184 275.882 123.516 275.882 123.516C275.882 123.516 247.269 116.184 246.784 165.925L244.845 197.865C244.845 197.865 245.812 209.387 275.882 208.339Z" fill="#CB919B"/>
<path d="M277.007 194.719H274.937C271.995 194.719 269.611 197.105 269.611 200.048V211.284C269.611 214.227 271.995 216.613 274.937 216.613H277.007C279.948 216.613 282.333 214.227 282.333 211.284V200.048C282.333 197.105 279.948 194.719 277.007 194.719Z" fill="#C0BCCF"/>
<path opacity="0.1" d="M282.312 276.439V278.217H270.625V276.452L271.643 276.184H281.31L282.312 276.439Z" fill="black"/>
<path d="M228.902 293.486C228.902 293.486 223.811 289.415 271.66 276.687H281.327C281.327 276.687 322.53 286.857 323.037 293.486H316.932C316.932 293.486 294.543 286.857 284.365 286.857C274.187 286.857 243.656 287.876 234.518 293.477L228.902 293.486Z" fill="#C0BCCF"/>
<path d="M230.879 178.935H233.031C234.5 178.935 235.909 179.518 236.947 180.558C237.986 181.597 238.569 183.006 238.569 184.476V187.081H225.341V184.476C225.341 183.006 225.924 181.597 226.963 180.558C228.002 179.518 229.41 178.935 230.879 178.935Z" fill="#CB919B"/>
<path d="M318.389 178.935H320.541C322.009 178.935 323.418 179.518 324.457 180.558C325.496 181.597 326.079 183.006 326.079 184.476V187.081H312.85V184.476C312.85 183.006 313.434 181.597 314.473 180.558C315.511 179.518 316.92 178.935 318.389 178.935Z" fill="#CB919B"/>
<path d="M231.446 300.613C233.413 300.613 235.008 299.017 235.008 297.049C235.008 295.081 233.413 293.486 231.446 293.486C229.479 293.486 227.884 295.081 227.884 297.049C227.884 299.017 229.479 300.613 231.446 300.613Z" fill="#5A5773"/>
<path d="M275.716 300.613C277.683 300.613 279.278 299.017 279.278 297.049C279.278 295.081 277.683 293.486 275.716 293.486C273.749 293.486 272.155 295.081 272.155 297.049C272.155 299.017 273.749 300.613 275.716 300.613Z" fill="#5A5773"/>
<path d="M320.494 300.613C322.461 300.613 324.056 299.017 324.056 297.049C324.056 295.081 322.461 293.486 320.494 293.486C318.527 293.486 316.932 295.081 316.932 297.049C316.932 299.017 318.527 300.613 320.494 300.613Z" fill="#5A5773"/>
<path opacity="0.1" d="M282.329 228.322H270.625V230.36H282.329V228.322Z" fill="black"/>
<path d="M276.735 229.341H310.818L313.374 224.251C314.9 215.598 309.306 215.086 309.306 215.086H244.168C244.168 215.086 238.569 215.594 240.099 224.251L242.655 229.341H276.735Z" fill="#CB919B"/>
<path opacity="0.1" d="M276.735 229.341H310.818L313.374 224.251C314.9 215.598 309.306 215.086 309.306 215.086H244.168C244.168 215.086 238.569 215.594 240.099 224.251L242.655 229.341H276.735Z" fill="white"/>
<path d="M276.735 229.341H310.818L313.374 224.976C314.9 217.559 309.306 217.12 309.306 217.12H244.168C244.168 217.12 238.569 217.546 240.099 224.976L242.655 229.341H276.735Z" fill="#CB919B"/>
<path d="M345.366 128.06C345.366 128.06 341.476 126.742 339.606 130.191C339.112 131.121 338.86 132.16 338.875 133.213C338.889 134.266 339.168 135.298 339.687 136.214C340.918 138.439 343.449 141.329 348.251 141.069C352.324 140.852 353.674 137.744 354.045 134.85C354.18 133.768 354.037 132.668 353.628 131.657C353.219 130.646 352.558 129.756 351.708 129.072C350.858 128.389 349.848 127.934 348.773 127.752C347.698 127.569 346.594 127.665 345.567 128.03L345.366 128.06Z" fill="#949ABB"/>
<path opacity="0.1" d="M340.518 136.504C339.999 135.588 339.72 134.556 339.705 133.503C339.691 132.45 339.943 131.41 340.437 130.481C342.307 127.071 346.197 128.349 346.197 128.349L346.397 128.277C347.881 127.74 349.511 127.776 350.969 128.379C350.164 127.899 349.263 127.604 348.33 127.515C347.397 127.426 346.456 127.545 345.575 127.863L345.375 127.936C345.375 127.936 341.485 126.619 339.615 130.067C339.121 130.997 338.869 132.036 338.883 133.089C338.897 134.142 339.177 135.174 339.696 136.09C340.658 137.928 342.203 139.393 344.088 140.255C342.578 139.354 341.344 138.057 340.518 136.504Z" fill="white"/>
<path opacity="0.2" d="M343.364 129.709C343.364 129.709 344.804 130.843 348.31 129.709H343.364Z" fill="black"/>
<path d="M343.057 121.465C343.057 121.465 345.528 128.166 345.324 129.918L347.279 129.713C347.279 129.713 343.982 123.839 344.808 121.469L343.057 121.465Z" fill="#949ABB"/>
<path opacity="0.2" d="M343.057 121.465C343.057 121.465 345.528 128.166 345.324 129.918L347.279 129.713C347.279 129.713 343.982 123.839 344.808 121.469L343.057 121.465Z" fill="black"/>
<path d="M353.146 122.024C353.146 122.024 349.256 120.033 347.514 121.678C345.771 123.324 345.507 127.527 345.507 127.527C345.507 127.527 351.851 128.401 353.146 122.024Z" fill="#949ABB"/>
<path opacity="0.1" d="M353.146 122.024C353.146 122.024 349.256 120.033 347.514 121.678C345.771 123.324 345.507 127.527 345.507 127.527C345.507 127.527 351.851 128.401 353.146 122.024Z" fill="white"/>
<path d="M345.507 127.527C345.507 127.527 346.529 122.646 353.146 122.024" stroke="#949ABB" stroke-miterlimit="10"/>
</g>
<defs>
<linearGradient id="paint0_linear" x1="185.608" y1="118.908" x2="185.608" y2="79.6908" gradientUnits="userSpaceOnUse">
<stop stop-color="#808080" stop-opacity="0.25"/>
<stop offset="0.54" stop-color="#808080" stop-opacity="0.12"/>
<stop offset="1" stop-color="#808080" stop-opacity="0.1"/>
</linearGradient>
<linearGradient id="paint1_linear" x1="80519.1" y1="172021" x2="80519.1" y2="40735.6" gradientUnits="userSpaceOnUse">
<stop stop-color="#808080" stop-opacity="0.25"/>
<stop offset="0.54" stop-color="#808080" stop-opacity="0.12"/>
<stop offset="1" stop-color="#808080" stop-opacity="0.1"/>
</linearGradient>
<clipPath id="clip0">
<rect width="480" height="335" fill="white" transform="translate(0.985107)"/>
</clipPath>
</defs>
</svg>
