<svg width="1440" height="483" viewBox="0 0 1440 483" fill="none" xmlns="http://www.w3.org/2000/svg">
<path fill-rule="evenodd" clip-rule="evenodd" d="M0 439.105L60 380.579C120 322.052 240 205 360 205C480 205 600 322.052 720 336.684C840 351.316 960 263.526 1080 263.526C1200 263.526 1320 351.316 1380 395.21L1440 439.105V483H1380C1320 483 1200 483 1080 483C960 483 840 483 720 483C600 483 480 483 360 483C240 483 120 483 60 483H0V439.105Z" fill="#949ABB" fill-opacity="0.1"/>
<path d="M-0.0873413 99.8256C52.9839 99.8256 105.535 109.724 154.567 128.957C203.598 148.19 248.149 176.379 285.676 211.917C323.203 247.454 352.971 289.643 373.281 336.075C393.59 382.506 404.044 432.271 404.044 482.529L-0.0873413 482.529L-0.0873413 99.8256Z" fill="#949ABB" fill-opacity="0.1"/>
<path d="M0.90002 1.22141C66.2751 1.54531 128.846 27.4047 174.848 73.1107C220.85 118.817 246.514 180.625 246.196 244.94C245.877 309.254 219.601 370.805 173.149 416.053C126.696 461.301 63.8722 486.539 -1.50287 486.215L-0.301442 243.718L0.90002 1.22141Z" fill="#949ABB" fill-opacity="0.1"/>
<path d="M1197.61 486.495C1197.83 454.125 1204.31 422.113 1216.69 392.286C1229.07 362.46 1247.11 335.404 1269.78 312.662C1292.45 289.921 1319.3 271.939 1348.8 259.744C1378.3 247.55 1409.88 241.38 1441.72 241.589L1440.11 488.084L1197.61 486.495Z" fill="#949ABB" fill-opacity="0.1"/>
</svg>
