<svg width="421" height="306" viewBox="0 0 421 306" fill="none" xmlns="http://www.w3.org/2000/svg">
<g clip-path="url(#clip0)">
<g opacity="0.1">
<path opacity="0.1" d="M26.4654 45.7649C30.3813 52.57 28.2122 61.4032 23.9584 68.0013C19.7047 74.5994 13.6542 79.8364 8.9398 86.1316C-0.431498 98.6914 -2.85399 118.524 8.96283 128.845C11.5082 131.068 14.6563 132.828 16.2073 135.826C18.3495 139.963 16.7639 144.947 15.1477 149.329L15.0133 149.689C8.90525 166.225 17.9041 184.551 34.7694 189.738C44.1023 192.61 52.5254 197.264 58.7601 204.79C64.2078 211.369 67.3559 219.485 70.9493 227.229C77.4451 241.219 85.8297 254.596 97.4162 264.782C109.003 274.969 124.121 281.72 139.554 281.164C174.805 279.895 200.762 242.826 235.978 240.874C238.515 240.732 241.218 240.828 243.341 242.224C246.336 244.194 247.253 248.063 248.513 251.425C255.181 269.226 275.26 277.43 293.238 283.664L327.023 295.388C345.374 301.752 364.646 308.212 383.842 305.264C403.037 302.316 421.78 286.574 420.947 267.19C420.263 251.268 407.049 237.255 408.781 221.41C409.978 210.46 418.19 201.263 419.565 190.332C420.997 178.957 414.77 168.035 407.602 159.079C386.978 133.3 357.586 116.308 328.9 99.9182C308.695 88.3706 288.386 76.777 266.633 68.4805C213.008 48.0805 154.07 48.9585 96.944 43.3917C87.1197 42.4332 76.85 41.3061 67.8473 36.97C60.9369 33.6422 55.5352 25.9476 47.953 24.3182C42.1751 23.0761 33.6292 25.6409 28.5846 28.4435C19.3899 33.5885 21.9237 37.8709 26.4654 45.7649Z" fill="#949ABB"/>
</g>
<path d="M380.24 0H71.694C70.2814 0.00602557 68.8838 0.290043 67.5812 0.835815C66.2786 1.38159 65.0964 2.17841 64.1024 3.18072C63.1083 4.18304 62.3218 5.37119 61.7879 6.67724C61.2539 7.9833 60.983 9.38165 60.9906 10.7923V227.482C60.983 228.893 61.2539 230.291 61.7879 231.597C62.3218 232.904 63.1083 234.092 64.1024 235.094C65.0964 236.096 66.2786 236.893 67.5812 237.439C68.8838 237.985 70.2814 238.269 71.694 238.275H380.24C381.653 238.269 383.051 237.985 384.353 237.439C385.656 236.893 386.838 236.096 387.832 235.094C388.826 234.092 389.613 232.904 390.147 231.597C390.681 230.291 390.952 228.893 390.944 227.482V10.7923C390.952 9.38165 390.681 7.9833 390.147 6.67724C389.613 5.37119 388.826 4.18304 387.832 3.18072C386.838 2.17841 385.656 1.38159 384.353 0.835815C383.051 0.290043 381.653 0.00602557 380.24 0Z" fill="url(#paint0_linear)"/>
<path d="M389.55 22.9572V224.898C389.55 227.709 388.432 230.404 386.442 232.391C384.452 234.379 381.753 235.495 378.939 235.495H73.1184C70.3041 235.495 67.605 234.379 65.615 232.391C63.625 230.404 62.507 227.709 62.507 224.898V22.9572H389.55Z" fill="#F6F7F9"/>
<path d="M142.395 127.043V235.491H73.1184C67.2599 235.491 62.507 230.653 62.507 224.688V127.043H142.395Z" fill="#DDE1EC"/>
<path d="M299.262 47.6818H166.113V51.4198H299.262V47.6818Z" fill="#DDE1EC"/>
<path d="M246.416 74.2735H166.113V78.0115H246.416V74.2735Z" fill="#DDE1EC"/>
<path d="M291.357 74.2735H264.311V78.0115H291.357V74.2735Z" fill="#DDE1EC"/>
<g opacity="0.1">
<path opacity="0.1" d="M114.101 167.555H87.0544V171.293H114.101V167.555Z" fill="#949ABB"/>
</g>
<path d="M291.357 109.177H264.311V112.915H291.357V109.177Z" fill="#DDE1EC"/>
<path d="M291.357 144.081H264.311V147.819H291.357V144.081Z" fill="#DDE1EC"/>
<path d="M291.357 85.9092H264.311V89.6472H291.357V85.9092Z" fill="#DDE1EC"/>
<path d="M337.956 85.9092H310.91V89.6472H337.956V85.9092Z" fill="#DDE1EC"/>
<path d="M291.357 97.5413H264.311V101.279H291.357V97.5413Z" fill="#DDE1EC"/>
<path d="M337.956 97.5413H310.91V101.279H337.956V97.5413Z" fill="#DDE1EC"/>
<path d="M337.956 119.149H310.91V122.887H337.956V119.149Z" fill="#DDE1EC"/>
<path d="M337.956 130.785H310.91V134.523H337.956V130.785Z" fill="#DDE1EC"/>
<path d="M337.956 155.716H310.91V159.454H337.956V155.716Z" fill="#DDE1EC"/>
<path d="M246.416 85.9092H166.113V89.6472H246.416V85.9092Z" fill="#DDE1EC"/>
<path d="M246.416 97.5413H166.113V101.279H246.416V97.5413Z" fill="#DDE1EC"/>
<path d="M246.416 109.177H166.113V112.915H246.416V109.177Z" fill="#DDE1EC"/>
<path d="M246.416 120.813H166.113V124.551H246.416V120.813Z" fill="#DDE1EC"/>
<path d="M246.416 132.445H166.113V136.183H246.416V132.445Z" fill="#DDE1EC"/>
<path d="M246.416 144.081H166.113V147.819H246.416V144.081Z" fill="#DDE1EC"/>
<path d="M246.416 155.716H166.113V159.454H246.416V155.716Z" fill="#DDE1EC"/>
<path d="M142.395 22.7501H62.507V129.121H142.395V22.7501Z" fill="#949ABB"/>
<path d="M389.55 12.1534C389.549 9.34358 388.431 6.64923 386.441 4.66277C384.451 2.67631 381.753 1.56039 378.939 1.56039H73.1184C70.3041 1.56039 67.605 2.67684 65.615 4.66413C63.625 6.65141 62.507 9.34675 62.507 12.1572V24.207H389.55V12.1534Z" fill="#E8EAF1"/>
<path d="M75.4065 16.9342C77.7049 16.9342 79.5681 15.0735 79.5681 12.7783C79.5681 10.483 77.7049 8.62238 75.4065 8.62238C73.1081 8.62238 71.2449 10.483 71.2449 12.7783C71.2449 15.0735 73.1081 16.9342 75.4065 16.9342Z" fill="#FF5252"/>
<path d="M89.1352 16.9342C91.4336 16.9342 93.2968 15.0735 93.2968 12.7783C93.2968 10.483 91.4336 8.62238 89.1352 8.62238C86.8368 8.62238 84.9736 10.483 84.9736 12.7783C84.9736 15.0735 86.8368 16.9342 89.1352 16.9342Z" fill="#FFFF00"/>
<path d="M102.868 16.9342C105.166 16.9342 107.029 15.0735 107.029 12.7783C107.029 10.483 105.166 8.62238 102.868 8.62238C100.569 8.62238 98.7061 10.483 98.7061 12.7783C98.7061 15.0735 100.569 16.9342 102.868 16.9342Z" fill="#69F0AE"/>
<path d="M125.757 75.9374C125.764 81.2664 123.931 86.4349 120.566 90.5713C120.439 90.7284 120.313 90.8818 120.182 91.0351C120.157 91.0612 120.134 91.0894 120.113 91.1195C118.921 92.4971 117.572 93.731 116.094 94.7962L115.902 94.938C115.637 95.1259 115.368 95.3214 115.095 95.4824L114.907 95.6013L114.504 95.8505C114.445 95.8881 114.383 95.9227 114.32 95.954C114.27 95.9898 114.217 96.0219 114.162 96.0498C113.571 96.3949 112.961 96.7131 112.335 97.0045C112.266 97.0428 112.189 97.0735 112.116 97.108C112.043 97.1425 111.959 97.1847 111.874 97.2153C111.79 97.246 111.625 97.3265 111.49 97.3764C110.15 97.9432 108.757 98.3797 107.333 98.6799C105.975 98.9701 104.594 99.1382 103.206 99.1821H102.994H102.445C100.614 99.1884 98.7878 98.9787 97.0054 98.5572L96.6714 98.4767C95.8882 98.2722 95.1204 98.0345 94.3679 97.7636C93.9111 97.5949 93.4581 97.4109 93.0166 97.2153C92.9052 97.1655 92.7977 97.1195 92.6864 97.0658L92.3524 96.9163L92.0606 96.7668L91.7535 96.6096L91.4118 96.4294L91.0279 96.2109L90.9665 96.1764C89.33 95.249 87.8115 94.1277 86.444 92.8371C86.3288 92.7259 86.2098 92.6185 86.0985 92.4997C85.9871 92.3808 85.8566 92.262 85.7414 92.1393C83.082 89.4043 81.1362 86.0587 80.0753 82.3966C79.0143 78.7346 78.8706 74.8682 79.6569 71.1377C80.4431 67.4072 82.1352 63.9267 84.5843 61.0024C87.0335 58.0782 90.1646 55.7996 93.7023 54.3672C97.2401 52.9348 101.076 52.3924 104.873 52.7877C108.67 53.183 112.311 54.5039 115.477 56.6343C118.643 58.7646 121.236 61.6392 123.029 65.0051C124.821 68.371 125.758 72.1251 125.757 75.9374Z" fill="white"/>
<path d="M115.56 85.2575V85.2882L115.587 85.315C115.579 85.292 115.568 85.2767 115.56 85.2575ZM92.0798 96.7591C92.0414 96.2223 92.003 95.7393 91.9685 95.3252C91.9416 95.0338 91.9147 94.7731 91.8917 94.5584C91.8894 94.5483 91.8894 94.5379 91.8917 94.5278C91.8917 94.4741 91.8917 94.4243 91.8917 94.3744C91.5217 94.9385 91.2177 95.5431 90.9857 96.1763L91.0471 96.2108L91.431 96.4294L91.7727 96.6096L92.0798 96.7667C92.0798 96.938 92.0926 97.1169 92.1182 97.3035C92.099 97.1195 92.0913 96.9431 92.0798 96.7706V96.7591ZM97.1897 74.8409L97.2089 74.8754C97.2103 74.8843 97.2103 74.8933 97.2089 74.9022C97.2055 74.8846 97.199 74.8677 97.1897 74.8524V74.8409Z" fill="url(#paint1_linear)"/>
<path d="M103.874 70.9265C103.874 70.9265 102.488 77.145 106.296 80.4307C110.104 83.7163 97.301 86.2888 95.0436 83.5399C92.7862 80.791 96.61 79.3879 96.61 79.3879C96.61 79.3879 98.5295 77.8313 96.61 73.1693L103.874 70.9265Z" fill="#E0A17E"/>
<path d="M107.329 98.6875C105.971 98.9778 104.59 99.1459 103.202 99.1898H102.991H102.442C100.611 99.1933 98.7862 98.9809 97.0054 98.5572L96.6714 98.4767C95.8882 98.2722 95.1204 98.0345 94.3679 97.7636L93.984 92.0128L95.6502 84.0498L96.6292 79.3572L96.9056 78.046L97.1858 78.4294L97.2473 78.5137L97.3241 78.6134L100.395 82.6965L103.54 79.315L103.701 79.1386L104.565 78.207L104.891 77.8581L105.045 79.0428L105.597 83.3022L106.622 91.1578L107.329 98.6875Z" fill="#F0F1F5"/>
<path opacity="0.1" d="M115.898 94.938C115.633 95.1259 115.364 95.3214 115.092 95.4824L114.903 95.6013L114.5 95.8505C114.441 95.8881 114.379 95.9227 114.316 95.954C114.266 95.9898 114.213 96.0219 114.159 96.0498C113.313 95.3294 112.677 94.3943 112.32 93.3431C112.275 93.2097 112.236 93.0741 112.205 92.9368C112.203 92.9151 112.203 92.8933 112.205 92.8716L111.986 93.4467L111.314 95.1067C111.314 95.1067 111.513 95.9195 111.871 97.2077C111.745 97.2665 111.617 97.3201 111.487 97.3687C110.146 97.9355 108.753 98.372 107.329 98.6722C105.971 98.9625 104.59 99.1306 103.202 99.1744H102.991C102.797 97.3923 102.729 95.5987 102.787 93.807L103.294 84.1572L103.551 79.2882L103.693 76.6045C103.693 76.6045 103.743 76.6582 103.839 76.7463C103.935 76.8345 104 76.8997 104.115 77.0032C105.829 78.4983 107.988 79.3888 110.258 79.5374C110.885 79.5554 111.5 79.7177 112.054 80.0116C112.608 80.3055 113.086 80.7231 113.452 81.232C114.146 82.2172 114.592 83.3546 114.754 84.5483L114.869 85.6026L114.9 85.9016L114.942 86.285L115.898 94.938Z" fill="black"/>
<path d="M116.09 94.8L115.898 94.9418C115.633 95.1297 115.364 95.3252 115.092 95.4862L114.903 95.6051L114.5 95.8543C113.598 95.1295 112.91 94.1724 112.512 93.0862C112.493 93.0413 112.478 92.9952 112.466 92.9482C112.423 92.814 112.385 92.6722 112.354 92.5342L112.197 92.9444L111.982 93.5003L111.49 94.7808C111.49 94.7808 111.717 95.7009 112.116 97.1195C112.036 97.1578 111.959 97.1961 111.874 97.2268C111.79 97.2575 111.625 97.338 111.49 97.3878C110.15 97.9546 108.757 98.3912 107.333 98.6913C105.975 98.9816 104.594 99.1497 103.206 99.1936C102.982 97.2956 102.901 95.3835 102.964 93.4734L103.455 84.1227L103.716 79.1386L103.843 76.7885L103.866 76.3016C103.886 76.3246 103.908 76.3464 103.931 76.3667C105.7 78.0622 108.011 79.0792 110.458 79.2383C111.076 79.2561 111.682 79.4141 112.23 79.7004C112.778 79.9866 113.254 80.3937 113.621 80.8907C114.334 81.8846 114.793 83.0376 114.957 84.2492L115.161 86.1393V86.1661L115.203 86.5495L116.09 94.8Z" fill="#293158"/>
<path opacity="0.1" d="M97.4239 77.4709V77.7048L97.3624 78.5942L97.1475 81.6383C97.1475 81.6383 97.0208 82.5163 96.9286 84.4946C96.7943 87.1016 96.7136 91.6179 97.0246 98.5648L96.6906 98.4843C95.9074 98.2799 95.1396 98.0422 94.3871 97.7712C93.9303 97.6025 93.4773 97.4185 93.0358 97.223C92.9244 97.1731 92.8169 97.1271 92.7056 97.0735C92.5943 95.5399 92.4599 94.6006 92.4599 94.6006C92.4599 94.6006 92.3562 94.731 92.1988 94.984C92.1336 95.0875 92.0529 95.214 91.9685 95.3674L91.9493 95.4019C91.8751 95.5297 91.7957 95.6754 91.7113 95.839C91.6153 96.0307 91.5193 96.2224 91.4272 96.4639L91.0432 96.2454L90.9818 96.2108C89.3453 95.2834 87.8269 94.1622 86.4594 92.8716C87.0774 90.6978 87.6111 88.5124 87.803 88.2326C88.5189 87.1345 89.0687 85.9369 89.4347 84.6786C89.6904 83.8239 90.133 83.0366 90.7305 82.3736C91.328 81.7106 92.0656 81.1884 92.8899 80.8447C94.6123 80.0386 96.1524 78.8907 97.4162 77.4709H97.4239Z" fill="black"/>
<path d="M97.4277 77.3636C95.9418 78.6201 94.2862 79.6616 92.5098 80.4575C91.6855 80.8012 90.9479 81.3234 90.3504 81.9864C89.7529 82.6494 89.3102 83.4367 89.0545 84.2914C88.6886 85.5497 88.1388 86.7473 87.4229 87.8454C87.2348 88.1253 86.6973 90.3144 86.0792 92.492C86.1906 92.607 86.3096 92.7182 86.4247 92.8294C87.7923 94.1201 89.3107 95.2413 90.9472 96.1687L91.0087 96.2032C91.2326 95.6334 91.5157 95.0886 91.8533 94.5776L91.8725 94.547C92.0068 94.3476 92.0913 94.2403 92.0913 94.2403C92.0913 94.2403 92.1258 94.4933 92.1758 94.9495C92.2257 95.4058 92.2909 96.0997 92.3524 96.9048L92.6864 97.0543C92.7938 97.108 92.9014 97.154 93.0165 97.2038C93.458 97.3994 93.911 97.5872 94.3679 97.7521C95.1127 98.0256 95.8805 98.2633 96.6714 98.4652C96.3566 91.5872 96.4257 87.0556 96.5524 84.3834C96.6522 82.2288 96.7865 81.2741 96.7865 81.2741L97.2741 78.4754L97.4123 77.6856L97.4776 77.3022L97.4277 77.3636Z" fill="#293158"/>
<path opacity="0.1" d="M99.8963 76.9763C99.0331 76.9773 98.181 76.7819 97.4047 76.4051C97.2706 75.4116 97.0033 74.4406 96.61 73.5182L103.874 71.2754C103.609 72.6653 103.558 74.0875 103.724 75.4926C102.677 76.4457 101.313 76.9748 99.8963 76.9763Z" fill="black"/>
<path d="M99.8963 76.6313C103.049 76.6313 105.605 74.0789 105.605 70.9303C105.605 67.7818 103.049 65.2294 99.8963 65.2294C96.7434 65.2294 94.1875 67.7818 94.1875 70.9303C94.1875 74.0789 96.7434 76.6313 99.8963 76.6313Z" fill="#E0A17E"/>
<g opacity="0.1">
<path opacity="0.1" d="M111.498 97.384C111.049 95.8083 110.799 94.7732 110.799 94.7732L111.663 92.5265C111.731 92.8423 111.83 93.1505 111.959 93.4467L111.978 93.4965L111.487 94.777C111.487 94.777 111.713 95.6971 112.112 97.1156C112.032 97.154 111.955 97.1923 111.87 97.223C111.786 97.2536 111.621 97.3342 111.498 97.384Z" fill="black"/>
</g>
<path d="M118.236 86.6492C118.236 86.6492 117.718 81.6383 118.236 79.2191C118.754 76.8 112.181 79.5642 113.564 82.846C114.303 84.6653 115.231 86.4025 116.332 88.0294L118.236 86.6492Z" fill="#E0A17E"/>
<path opacity="0.1" d="M120.109 91.1195C118.917 92.497 117.568 93.7309 116.09 94.7962L115.898 94.938C115.633 95.1259 115.364 95.3214 115.091 95.4824C114.473 94.7494 113.92 93.9629 113.441 93.1323L113.391 93.0441L114.777 85.7866L114.923 85.9361C114.984 85.9936 115.065 86.0703 115.161 86.147H115.18C115.898 86.7604 117.414 87.6805 118.144 85.5412C118.267 85.1667 118.356 84.7817 118.408 84.3911L118.551 84.9201L118.635 85.2307L120.171 91.016L120.109 91.1195Z" fill="black"/>
<path d="M120.109 91.1195C118.917 92.4971 117.568 93.731 116.09 94.7962L115.898 94.938C115.633 95.1259 115.364 95.3214 115.091 95.4824L114.903 95.6013C114.341 94.9043 113.835 94.1632 113.391 93.3853L113.441 93.1284L114.777 86.1278C114.777 86.1278 114.846 86.2083 114.965 86.3195L115.203 86.5304C115.303 86.6147 115.418 86.7067 115.544 86.7911C116.339 87.3355 117.549 87.7457 118.163 85.8326C118.276 85.4774 118.358 85.1131 118.408 84.7438L118.585 85.3955L120.109 91.1195Z" fill="#293158"/>
<path opacity="0.02" d="M120.109 91.1195C118.917 92.4971 117.568 93.731 116.09 94.7962L115.898 94.938C115.633 95.1259 115.364 95.3214 115.091 95.4824L114.903 95.6013C114.341 94.9043 113.835 94.1632 113.391 93.3853L113.441 93.1284L114.777 86.1278C114.777 86.1278 114.846 86.2083 114.965 86.3195L115.203 86.5304C115.303 86.6147 115.418 86.7067 115.544 86.7911C116.339 87.3355 117.549 87.7457 118.163 85.8326C118.276 85.4774 118.358 85.1131 118.408 84.7438L118.585 85.3955L120.109 91.1195Z" fill="black"/>
<path opacity="0.1" d="M91.8917 94.5623L91.8725 94.5929C91.8725 94.5738 91.8725 94.5508 91.8725 94.5354C92.1144 93.6958 92.3332 93.1284 92.529 92.9597C92.529 92.9597 92.7862 94.6658 93.0166 97.223C92.9052 97.1731 92.7977 97.1271 92.6864 97.0735L92.3524 96.9239C92.2948 96.0996 92.2334 95.4287 92.1758 94.9687C92.1182 94.5086 92.0913 94.2594 92.0913 94.2594C92.0913 94.2594 92.0261 94.3629 91.8917 94.5623Z" fill="black"/>
<path opacity="0.1" d="M99.9653 69.3585C100.264 69.195 100.607 69.1331 100.944 69.1821C101.09 69.2434 101.221 69.3349 101.328 69.4505C101.777 69.876 102.223 70.3706 102.829 70.5009C103.204 70.5578 103.586 70.5409 103.954 70.4511C104.6 70.3766 105.227 70.1856 105.805 69.8875C107.091 69.1208 107.501 67.4607 107.582 65.9693C107.609 65.4671 107.505 64.8192 107.01 64.7118C106.38 64.5776 105.92 65.5322 105.282 65.4287C105.089 65.3818 104.914 65.2759 104.783 65.1259C104.35 64.6926 104.054 64.1367 103.632 63.6997C102.956 63.0695 102.082 62.6952 101.159 62.6415C100.244 62.5919 99.3269 62.6785 98.4373 62.8984C97.9468 62.9792 97.4732 63.1412 97.0361 63.3776C96.8195 63.4959 96.6317 63.6602 96.4857 63.8589C96.3398 64.0577 96.2393 64.286 96.1915 64.5278C96.1492 64.8613 96.2375 65.2064 96.1723 65.5361C96.1077 65.7588 95.9981 65.9659 95.8502 66.1446C95.7023 66.3233 95.5192 66.4698 95.3123 66.5751C94.9284 66.8128 94.4754 66.9584 94.0991 67.2498C93.5012 67.7137 93.0865 68.3736 92.9282 69.1131C92.7747 69.8485 92.7539 70.6055 92.8668 71.3482C93.0243 72.6387 93.3845 73.8963 93.9341 75.0748C94.1157 75.4861 94.3492 75.8726 94.6289 76.2249C95.0395 76.6723 95.5112 77.0595 96.0302 77.3751C96.1242 77.4602 96.2361 77.5234 96.3576 77.5599C96.4792 77.5963 96.6073 77.6052 96.7328 77.5859C96.8047 77.5602 96.8711 77.5212 96.9286 77.4709C97.42 77.0607 97.466 76.3208 97.3125 75.6958C97.1589 75.0709 96.8979 74.4767 96.8671 73.8402C96.8475 73.6616 96.8823 73.4812 96.967 73.3227C97.0693 73.1944 97.1852 73.0775 97.3125 72.9738C97.4787 72.7829 97.6088 72.5633 97.6964 72.3259C97.9901 71.7393 98.1908 71.1107 98.2914 70.4626C98.347 69.9289 98.23 69.3915 97.9574 68.9291C98.2211 69.1766 98.5476 69.3475 98.9015 69.4232C99.2554 69.4989 99.6232 69.4765 99.9653 69.3585Z" fill="black"/>
<path d="M99.9653 69.1591C100.264 68.9957 100.607 68.9337 100.944 68.9827C101.09 69.0441 101.221 69.1356 101.328 69.2511C101.777 69.6767 102.223 70.1712 102.829 70.3016C103.204 70.3585 103.586 70.3415 103.954 70.2518C104.6 70.1772 105.227 69.9863 105.805 69.6882C107.091 68.9214 107.501 67.2613 107.582 65.77C107.609 65.2677 107.505 64.6198 107.01 64.5125C106.38 64.3783 105.92 65.3329 105.282 65.2294C105.089 65.1824 104.914 65.0766 104.783 64.9265C104.35 64.4933 104.054 63.9374 103.632 63.5003C102.956 62.8702 102.082 62.4959 101.159 62.4422C100.244 62.3926 99.3269 62.4792 98.4373 62.699C97.9468 62.7799 97.4732 62.9419 97.0361 63.1783C96.8195 63.2965 96.6317 63.4608 96.4857 63.6596C96.3398 63.8583 96.2393 64.0867 96.1915 64.3284C96.1492 64.662 96.2375 65.007 96.1723 65.3367C96.1077 65.5595 95.9981 65.7666 95.8502 65.9453C95.7023 66.124 95.5192 66.2705 95.3123 66.3757C94.9284 66.6134 94.4754 66.7591 94.0991 67.0505C93.5012 67.5144 93.0865 68.1743 92.9282 68.9137C92.7747 69.6492 92.7539 70.4061 92.8668 71.1489C93.0243 72.4393 93.3845 73.6969 93.9341 74.8754C94.1157 75.2868 94.3492 75.6733 94.6289 76.0256C95.0395 76.4729 95.5112 76.8601 96.0302 77.1757C96.1242 77.2609 96.2361 77.324 96.3576 77.3605C96.4792 77.397 96.6073 77.4059 96.7328 77.3866C96.8047 77.3608 96.8711 77.3218 96.9286 77.2716C97.42 76.8613 97.466 76.1214 97.3125 75.4965C97.1589 74.8716 96.8979 74.2773 96.8671 73.6409C96.8475 73.4623 96.8823 73.2819 96.967 73.1233C97.0693 72.9951 97.1852 72.8781 97.3125 72.7744C97.4787 72.5835 97.6088 72.364 97.6964 72.1265C97.9901 71.5399 98.1908 70.9113 98.2914 70.2633C98.347 69.7296 98.23 69.1921 97.9574 68.7297C98.2211 68.9773 98.5476 69.1482 98.9015 69.2238C99.2554 69.2995 99.6232 69.2771 99.9653 69.1591Z" fill="#463E3B"/>
<path d="M68.5537 217.131C73.8947 217.131 78.2244 215.543 78.2244 213.585C78.2244 211.626 73.8947 210.038 68.5537 210.038C63.2127 210.038 58.8829 211.626 58.8829 213.585C58.8829 215.543 63.2127 217.131 68.5537 217.131Z" fill="#CD9494"/>
<path opacity="0.05" d="M68.5536 214.999C71.2782 214.999 73.4869 214.189 73.4869 213.19C73.4869 212.19 71.2782 211.38 68.5536 211.38C65.8291 211.38 63.6203 212.19 63.6203 213.19C63.6203 214.189 65.8291 214.999 68.5536 214.999Z" fill="black"/>
<path d="M58.8791 212.806C58.8791 212.806 69.5365 218.718 78.2206 213.596C78.2206 213.596 77.0381 234.096 71.1144 236.066H63.225C63.225 236.066 56.5142 222.253 58.8791 212.806Z" fill="#FF7361"/>
<path d="M76.9038 175.235C79.618 185.137 68.0469 213.347 68.0469 213.347C68.0469 213.347 43.7107 194.944 40.9964 185.045C39.6937 180.29 40.3358 175.213 42.7815 170.931C45.2273 166.649 49.2763 163.512 54.0379 162.211C58.7995 160.91 63.8837 161.551 68.1718 163.994C72.46 166.436 75.601 170.479 76.9038 175.235Z" fill="#949ABB"/>
<path opacity="0.1" d="M76.9038 175.235C79.618 185.137 68.0469 213.347 68.0469 213.347C68.0469 213.347 43.7107 194.944 40.9964 185.045C39.6937 180.29 40.3358 175.213 42.7815 170.931C45.2273 166.649 49.2763 163.512 54.0379 162.211C58.7995 160.91 63.8837 161.551 68.1718 163.994C72.46 166.436 75.601 170.479 76.9038 175.235Z" fill="black"/>
<path d="M54.1377 162.264C54.1377 162.264 69.2869 185.103 68.1467 213.397" stroke="#535461" stroke-miterlimit="10"/>
<path d="M80.7697 193.33C80.7697 193.33 67.018 185.866 68.7725 213.416C68.7725 213.416 80.2323 213.006 84.2979 203.67C85.0923 201.855 85.1926 199.812 84.5799 197.927C83.9672 196.043 82.684 194.448 80.9732 193.445L80.7697 193.33Z" fill="#949ABB"/>
<path d="M80.9963 193.376C80.9963 193.376 79.2226 207.677 68.7725 213.416" stroke="#535461" stroke-miterlimit="10"/>
<path opacity="0.05" d="M76.9306 214.252C76.5467 218.967 74.8921 233.613 69.9358 235.265H62.8603C63.0868 235.767 63.225 236.055 63.225 236.055H71.122C77.0381 234.081 78.2244 213.573 78.2244 213.573C77.805 213.821 77.3731 214.048 76.9306 214.252Z" fill="black"/>
<path d="M246.416 181.269H166.113V227.808H246.416V181.269Z" fill="#DDE1EC"/>
<path d="M378.306 89.4096C378.316 89.259 378.316 89.1078 378.306 88.9572C378.167 87.0863 376.386 85.7329 374.62 85.0122C372.854 84.2914 370.881 83.9387 369.318 82.846C366.677 80.9981 365.863 77.5438 365.625 74.3847C365.552 73.4032 365.521 72.4218 365.517 71.4365C365.514 70.4511 365.579 69.3623 365.671 68.3272C365.825 66.6096 366.078 64.8307 366.055 63.1093C366.145 61.4669 365.828 59.8276 365.134 58.3361C363.567 55.246 360.051 53.6665 356.795 52.3208C355.543 51.8032 354.261 51.278 352.902 51.2205C351.466 51.1591 350.069 51.623 348.71 52.0831C346.552 52.8115 344.364 53.7585 342.133 54.2531C340.882 54.5291 339.511 54.3221 338.294 54.763C335.906 55.6371 335.396 57.7802 335.434 60.1304C335.434 60.2799 335.434 60.4256 335.434 60.5751C335.196 60.3566 334.95 60.1496 334.701 59.9502L334.555 59.8352C334.299 59.6281 334.026 59.4326 333.737 59.2486L333.599 59.1604C333.012 58.7807 332.398 58.4462 331.76 58.1598L331.664 58.1176C331.344 57.977 331.019 57.8492 330.689 57.7342L330.628 57.7112C329.944 57.4734 329.243 57.2888 328.531 57.1591C326.288 56.744 323.977 56.8841 321.801 57.5671C319.624 58.2502 317.649 59.4554 316.047 61.0774L313.409 63.7611C301.419 61.0774 300.882 71.4786 300.882 71.4786L300.97 71.4595L300.94 71.5323C301.213 72.8485 301.557 74.1488 301.972 75.4275L209.384 169.867L200.024 198.836L205.28 196.965L229.29 188.4L315.263 100.697C321.698 105.263 328.385 111.382 328.385 111.382C328.385 111.382 324.239 113.571 325.775 123.6C327.652 135.868 324.83 153.332 324.83 153.332V164.626L325.36 164.481C325.295 164.864 325.226 165.247 325.161 165.688C324.286 171.363 324.175 177.129 324.83 182.833C326.251 194.818 331.925 211.181 331.925 211.181C331.925 211.181 334.052 216.932 334.528 221.551C334.603 222.464 334.807 223.361 335.135 224.216C336.202 226.75 336.765 229.468 336.793 232.217C336.793 237.232 337.45 244.758 340.44 252.437C342.84 258.602 343.727 262.213 343.992 264.322C342.291 266.569 340.068 269.019 338.313 269.264C335.004 269.724 328.616 270.184 332.873 275.716C333.022 275.906 333.188 276.082 333.369 276.242C330.136 276.763 326.581 277.913 330.036 282.399C334.294 287.931 359.363 285.397 359.363 285.397C359.363 285.397 359.525 282.33 359.363 278.948C361.122 278.826 362.208 278.714 362.208 278.714C362.208 278.714 362.918 265.346 359.843 263.732C359.275 263.794 358.717 263.93 358.185 264.138C357.855 262.29 357.601 259.994 357.444 258.291L358.661 258.199V238.148C358.661 238.148 357.24 225.704 352.038 220.171C351.375 219.48 350.803 218.707 350.338 217.871C350.376 216.272 350.38 214.037 350.361 211.457C350.567 211.108 350.813 210.784 351.094 210.491C351.094 210.491 353.931 207.04 363.629 185.137C369.349 172.221 368.074 164.764 366.066 160.815C365.683 159.412 364.684 155.406 363.379 148.029C361.724 138.579 363.617 129.358 363.617 129.358C363.617 129.358 369.76 113.456 372.604 107.003C373.263 105.449 373.537 103.759 373.403 102.077C374.144 101.536 374.501 100.635 374.82 99.7764L377.734 92.0128C378.048 91.1732 378.371 90.2991 378.302 89.4058L378.306 89.4096ZM338.732 75.4313C339.048 75.9246 339.401 76.3936 339.788 76.8345C339.788 76.8345 339.354 76.3821 338.636 75.6537C338.67 75.5809 338.701 75.5042 338.732 75.4313ZM324.404 91.3687L332.424 83.1873C335.196 85.7176 338.164 88.3016 340.644 90.4294C340.408 91.5197 340.094 92.5921 339.707 93.6384C338.632 94.1713 337.212 94.3438 335.484 93.4045C332.747 91.9285 327.694 91.4914 324.404 91.3687Z" fill="url(#paint2_linear)"/>
<path d="M317.951 61.177C317.951 61.177 312.004 64.6045 313.835 69.4198C313.835 69.4198 320.012 71.2486 322.527 75.8185C325.042 80.3885 344.491 96.8358 344.491 96.8358L358.672 89.7393C358.672 89.7393 353.739 83.1604 338.133 78.5674C338.133 78.5674 328.919 68.7182 325.729 66.8933C322.538 65.0684 317.951 61.177 317.951 61.177Z" fill="#FEBDD5"/>
<path opacity="0.05" d="M317.951 61.177C317.951 61.177 312.004 64.6045 313.835 69.4198C313.835 69.4198 320.012 71.2486 322.527 75.8185C325.042 80.3885 344.491 96.8358 344.491 96.8358L358.672 89.7393C358.672 89.7393 353.739 83.1604 338.133 78.5674C338.133 78.5674 328.919 68.7182 325.729 66.8933C322.538 65.0684 317.951 61.177 317.951 61.177Z" fill="black"/>
<path d="M211.991 170.776L315.179 62.9022C317.618 60.3562 320.969 58.8809 324.496 58.8004C328.023 58.7199 331.438 60.0407 333.991 62.4728C336.54 64.9082 338.017 68.2546 338.098 71.7769C338.179 75.2993 336.856 78.7096 334.421 81.2588L231.248 189.148L202.938 199.499L211.991 170.776Z" fill="#949ABB"/>
<path opacity="0.1" d="M328.366 60.5597C330.916 62.9951 332.393 66.3415 332.474 69.8638C332.554 73.3862 331.232 76.7965 328.796 79.3457L225.612 187.219L204.359 194.983L202.923 199.491L231.233 189.14L334.432 81.3048C336.867 78.7556 338.19 75.3453 338.109 71.823C338.029 68.3006 336.552 64.9542 334.002 62.5188C331.876 60.4848 329.133 59.2155 326.205 58.9112C326.98 59.3859 327.704 59.9383 328.366 60.5597Z" fill="white"/>
<path d="M211.991 170.78L231.248 189.148L208.021 197.636L202.938 199.491L206.159 189.282L211.991 170.78Z" fill="#EFC8C4"/>
<path d="M206.159 189.278C206.864 189.415 207.536 189.684 208.14 190.072C208.839 190.574 209.346 191.444 209.154 192.28C208.965 192.8 208.695 193.288 208.355 193.725C208.008 194.31 207.798 194.965 207.74 195.642C207.682 196.319 207.779 197.001 208.021 197.636L202.923 199.491L206.159 189.278Z" fill="#727A9C"/>
<path d="M355.014 256.052C355.014 256.052 355.701 266.105 356.845 267.247C357.989 268.39 346.548 269.076 346.548 269.076L348.149 256.041L355.014 256.052Z" fill="#FFB9B9"/>
<path opacity="0.05" d="M355.014 256.052C355.014 256.052 355.701 266.105 356.845 267.247C357.989 268.39 346.548 269.076 346.548 269.076L348.149 256.041L355.014 256.052Z" fill="black"/>
<path d="M357.528 263.82C357.528 263.82 355.927 263.82 350.207 266.791C350.207 266.791 346.318 266.105 344.717 260.622C344.717 260.622 339.914 268.846 336.709 269.302C333.503 269.758 327.33 270.215 331.445 275.701C335.561 281.187 359.813 278.672 359.813 278.672C359.813 278.672 360.504 265.418 357.528 263.82Z" fill="#CBCDDA"/>
<path opacity="0.05" d="M357.528 263.82C357.528 263.82 355.927 263.82 350.207 266.791C350.207 266.791 346.318 266.105 344.717 260.622C344.717 260.622 339.914 268.846 336.709 269.302C333.503 269.758 327.33 270.215 331.445 275.701C335.561 281.187 359.813 278.672 359.813 278.672C359.813 278.672 360.504 265.418 357.528 263.82Z" fill="black"/>
<path d="M354.096 271.587L352.495 275.927L341.972 272.956L342.571 268.647L342.717 267.608L343.101 264.732C343.101 264.732 352.023 262.432 352.023 263.582C352.144 264.524 352.34 265.455 352.61 266.365C352.994 267.769 353.436 269.371 353.762 270.426C353.962 271.131 354.096 271.587 354.096 271.587Z" fill="#FFB9B9"/>
<path d="M348.357 212.005C347.635 213.224 346.821 215.509 348.337 218.362C348.786 219.187 349.338 219.953 349.981 220.639C355.014 226.121 356.388 238.459 356.388 238.459V258.334L352.956 258.598L347.466 259.02L339.212 225.213C339.212 225.213 334.409 200.538 336.697 196.198C338.985 191.858 341.043 164.672 341.043 164.672L342.943 162.709L347.451 158.047H360.504C361.547 158.795 362.413 159.762 363.041 160.881C365.23 164.5 367.195 172.026 361.191 185.919C351.812 207.623 349.067 211.05 349.067 211.05C348.795 211.341 348.556 211.661 348.357 212.005Z" fill="#B0B0FF"/>
<path opacity="0.05" d="M348.357 212.005C347.635 213.224 346.821 215.509 348.337 218.362C348.786 219.187 349.338 219.953 349.981 220.639C355.014 226.121 356.388 238.459 356.388 238.459V258.334L352.956 258.598L347.466 259.02L339.212 225.213C339.212 225.213 334.409 200.538 336.697 196.198C338.985 191.858 341.043 164.672 341.043 164.672L342.943 162.709L347.451 158.047H360.504C361.547 158.795 362.413 159.762 363.041 160.881C365.23 164.5 367.195 172.026 361.191 185.919C351.812 207.623 349.067 211.05 349.067 211.05C348.795 211.341 348.556 211.661 348.357 212.005Z" fill="black"/>
<path opacity="0.1" d="M352.626 266.373L342.717 267.608L343.101 264.732C343.101 264.732 352.023 262.432 352.023 263.582C352.148 264.527 352.35 265.46 352.626 266.373Z" fill="black"/>
<path d="M347.692 182.718C347.692 182.718 348.261 200.703 348.357 212.005C348.376 214.562 348.357 216.778 348.337 218.362C348.351 219.201 348.289 220.04 348.153 220.869C347.466 222.924 348.84 227.494 348.84 227.494C354.561 242.572 352.96 255.822 352.96 255.822V265.875L341.972 267.247C341.972 267.247 343.803 265.875 338.77 252.625C335.879 245.011 335.254 237.554 335.242 232.581C335.216 229.861 334.671 227.17 333.637 224.653C333.326 223.802 333.135 222.911 333.069 222.008C332.612 217.438 330.555 211.725 330.555 211.725C330.555 211.725 325.065 195.504 323.69 183.623C323.056 177.968 323.163 172.255 324.009 166.627C324.211 165.197 324.487 163.778 324.834 162.376C324.834 162.376 347.197 148.321 355.643 158.036C356.461 158.985 357.11 160.066 357.563 161.233C358.026 162.385 358.387 163.576 358.642 164.791C361.237 177.696 347.692 182.718 347.692 182.718Z" fill="#B0B0FF"/>
<path d="M347.005 82.6543C353.449 82.6543 358.672 77.4379 358.672 71.0032C358.672 64.5684 353.449 59.3521 347.005 59.3521C340.562 59.3521 335.338 64.5684 335.338 71.0032C335.338 77.4379 340.562 82.6543 347.005 82.6543Z" fill="#FFB9B9"/>
<path d="M340.602 78.3105C340.602 78.3105 345.404 91.7904 340.602 98.8715C335.799 105.953 355.927 103.668 355.927 103.668L363.705 94.3016C363.705 94.3016 354.553 94.3016 354.108 78.3105C353.662 62.3195 340.602 78.3105 340.602 78.3105Z" fill="#FFB9B9"/>
<path opacity="0.1" d="M363.705 163.526C362.047 164.099 360.341 164.527 358.607 164.803C355.758 165.24 352.399 165.259 350.434 163.526C349.282 162.498 346.399 162.376 342.951 162.702C335.691 163.396 325.863 166.102 323.982 166.635C324.184 165.205 324.46 163.786 324.807 162.383C324.807 162.383 347.17 148.328 355.616 158.043H360.496C361.539 158.791 362.406 159.758 363.034 160.877C363.46 162.694 363.705 163.526 363.705 163.526Z" fill="black"/>
<path opacity="0.1" d="M354.096 271.587L352.495 275.927L341.972 272.956L342.571 268.647C344.379 272.642 347.462 273.182 347.462 273.182C350.787 271.457 352.722 270.732 353.758 270.429C353.962 271.131 354.096 271.587 354.096 271.587Z" fill="black"/>
<path d="M354.783 270.445C354.783 270.445 353.182 270.445 347.462 273.416C347.462 273.416 343.573 272.73 341.972 267.247C341.972 267.247 337.169 275.471 333.964 275.927C330.758 276.383 324.585 276.832 328.704 282.326C332.823 287.82 357.071 285.297 357.071 285.297C357.071 285.297 357.759 272.043 354.783 270.445Z" fill="#CBCDDA"/>
<path d="M300.51 73.2345C300.51 73.2345 301.028 62.9252 312.626 65.5859L309.651 71.1565L300.51 73.2345Z" fill="#FFB9B9"/>
<path d="M354.568 97.0466C354.568 97.0466 343.358 95.2179 340.383 92.9329C340.383 92.9329 338.079 97.2728 333.975 94.9878C329.871 92.7029 320.25 92.9329 320.25 92.9329C320.25 92.9329 312.242 88.593 310.653 78.7668C310.653 78.7668 309.052 72.8281 309.501 71.2294C309.501 71.2294 303.554 65.0607 300.579 73.2843C301.73 78.9968 302.636 78.5406 302.41 83.1067L306.069 93.1591C306.069 93.1591 306.299 96.5866 312.933 101.157C319.567 105.726 327.119 112.808 327.119 112.808C327.119 112.808 323.114 114.978 324.604 124.915C326.42 137.061 323.69 154.386 323.69 154.386V165.581C323.69 165.581 346.568 158.956 350.457 162.383C354.346 165.811 363.725 162.383 363.725 162.383C363.725 162.383 362.573 158.5 360.98 149.134C359.386 139.767 361.21 130.627 361.21 130.627C361.21 130.627 367.157 114.863 369.902 108.468C372.647 102.073 367.844 93.3891 363.037 90.1917C358.231 86.9942 356.446 88.915 356.446 88.915C356.446 88.915 364.849 94.9917 354.568 97.0466Z" fill="#FEBDD5"/>
<path opacity="0.1" d="M334.386 68.1508C334.383 68.6264 334.463 69.0988 334.624 69.5464C334.891 70.0554 335.255 70.5073 335.695 70.8767C337.407 72.5483 338.912 74.5342 339.515 76.8499C339.922 78.4179 339.899 80.0588 339.876 81.6805C339.776 88.2403 339.492 95.3214 335.446 100.466C333.956 102.364 332.036 103.871 330.236 105.477C329.983 105.666 329.793 105.927 329.691 106.225C329.641 106.537 329.7 106.857 329.86 107.13C330.697 108.866 332.459 109.932 334.129 110.898C334.897 111.339 335.695 111.796 336.578 111.822C338.659 111.891 340.033 109.695 341.926 108.832C344.683 107.574 347.773 109.323 350.51 110.626C352.491 111.568 354.569 112.292 356.707 112.785C359.636 113.459 362.945 113.624 365.41 111.911C366.835 110.908 367.808 109.387 368.12 107.674C368.32 106.558 368.289 105.263 369.134 104.507C369.572 104.124 370.167 103.955 370.635 103.61C371.368 103.074 371.714 102.173 372.025 101.31L374.843 93.6154C375.206 92.8022 375.393 91.9217 375.392 91.0313C375.257 89.1796 373.545 87.8339 371.829 87.1208C370.113 86.4077 368.212 86.0588 366.7 84.9738C364.147 83.1412 363.356 79.7176 363.126 76.5853C362.968 74.4342 362.984 72.2739 363.172 70.1253C363.452 66.9393 364.074 63.5425 362.653 60.6748C361.137 57.6077 357.736 56.0473 354.591 54.7131C353.382 54.1994 352.138 53.6818 350.825 53.6243C349.435 53.563 348.084 54.0077 346.771 54.4793C344.683 55.2039 342.548 56.1393 340.41 56.6301C339.2 56.9061 337.872 56.6991 336.705 57.1361C332.417 58.7464 334.386 64.7042 334.386 68.1508Z" fill="black"/>
<path d="M334.386 67.6946C334.383 68.1701 334.463 68.6425 334.624 69.0901C334.891 69.5991 335.255 70.0511 335.695 70.4205C337.407 72.092 338.912 74.078 339.515 76.3936C339.922 77.9617 339.899 79.6026 339.876 81.2243C339.776 87.784 339.492 94.8652 335.446 100.01C333.956 101.908 332.036 103.415 330.236 105.021C329.984 105.205 329.793 105.46 329.687 105.753C329.637 106.065 329.697 106.385 329.856 106.658C330.693 108.395 332.455 109.461 334.125 110.427C334.893 110.868 335.691 111.324 336.574 111.351C338.655 111.42 340.03 109.223 341.922 108.36C344.679 107.103 347.769 108.851 350.507 110.155C352.487 111.096 354.565 111.82 356.703 112.313C359.632 112.988 362.941 113.153 365.406 111.439C366.831 110.436 367.804 108.915 368.117 107.203C368.316 106.087 368.286 104.791 369.13 104.036C369.568 103.652 370.163 103.484 370.631 103.139C371.365 102.602 371.71 101.701 372.021 100.838L374.839 93.1438C375.202 92.3307 375.389 91.4501 375.388 90.5598C375.254 88.708 373.541 87.3623 371.825 86.6492C370.109 85.9361 368.209 85.5872 366.696 84.5022C364.143 82.6697 363.352 79.246 363.122 76.1138C362.964 73.9626 362.98 71.8024 363.168 69.6537C363.448 66.4677 364.07 63.0709 362.65 60.2032C361.133 57.1361 357.732 55.5757 354.588 54.2415C353.378 53.7278 352.134 53.2102 350.821 53.1527C349.432 53.0914 348.08 53.5361 346.767 54.0077C344.679 54.7323 342.544 55.6677 340.406 56.1585C339.196 56.4345 337.868 56.2275 336.701 56.6645C332.417 58.3016 334.386 64.2479 334.386 67.6946Z" fill="#B96B6B"/>
<path opacity="0.05" d="M325.164 130.045C325.164 130.045 326.988 129.612 336.14 128.231C345.293 126.851 361.306 130.06 361.306 130.06" fill="black"/>
</g>
<defs>
<linearGradient id="paint0_linear" x1="225.969" y1="238.275" x2="225.969" y2="0" gradientUnits="userSpaceOnUse">
<stop stop-color="#808080" stop-opacity="0.25"/>
<stop offset="0.54" stop-color="#808080" stop-opacity="0.12"/>
<stop offset="1" stop-color="#808080" stop-opacity="0.1"/>
</linearGradient>
<linearGradient id="paint1_linear" x1="-8060.74" y1="6920.1" x2="-8060.74" y2="5603.34" gradientUnits="userSpaceOnUse">
<stop stop-color="#808080" stop-opacity="0.25"/>
<stop offset="0.54" stop-color="#808080" stop-opacity="0.12"/>
<stop offset="1" stop-color="#808080" stop-opacity="0.1"/>
</linearGradient>
<linearGradient id="paint2_linear" x1="143482" y1="187121" x2="143482" y2="43364.6" gradientUnits="userSpaceOnUse">
<stop stop-color="#808080" stop-opacity="0.25"/>
<stop offset="0.54" stop-color="#808080" stop-opacity="0.12"/>
<stop offset="1" stop-color="#808080" stop-opacity="0.1"/>
</linearGradient>
<clipPath id="clip0">
<rect width="420" height="306" fill="white" transform="translate(0.985107)"/>
</clipPath>
</defs>
</svg>
