<svg width="306" height="161" viewBox="0 0 306 161" fill="none" xmlns="http://www.w3.org/2000/svg">
<g clip-path="url(#clip0)">
<path d="M305.985 28.6884V62.5755L305.411 61.7219L264.2 0.572852L263.813 0H286.651L287.036 0.572852L305.411 27.8349L305.985 28.6884Z" fill="#F3BA8D"/>
<path d="M161.857 -0.000296492C140.727 -0.0272406 119.8 4.1103 100.278 12.1746C80.7565 20.2388 63.0252 32.0709 48.103 46.9907C45.544 49.5428 43.0837 52.1655 40.722 54.8589C35.871 60.3739 31.4078 66.2166 27.3643 72.3452C26.1983 74.1124 25.0686 75.9026 23.9754 77.7156C20.0495 84.2207 16.5915 90.9954 13.6276 97.9889C13.303 98.7508 12.9862 99.5155 12.6769 100.283C10.9566 104.514 9.42583 108.8 8.08461 113.141C4.6399 124.273 2.43433 135.749 1.50774 147.363C1.16023 151.691 0.985996 156.049 0.985039 160.438V160.725H305.985V-0.000296492H161.857ZM305.411 160.152H1.55946C1.5652 156.257 1.71071 152.396 1.996 148.572C2.85811 136.857 5.02153 125.273 8.4465 114.034C9.78485 109.641 11.3051 105.33 13.0072 101.102C16.1567 93.2715 19.9261 85.7032 24.2798 78.4689C25.3683 76.6501 26.497 74.8552 27.6659 73.0841C31.7004 66.9351 36.1549 61.0704 40.9977 55.532C70.4069 21.8769 113.685 0.572555 161.857 0.572555H305.411V160.152Z" fill="white"/>
<path d="M143.319 137.732C147.192 149.358 145.832 160.274 145.832 160.274C145.832 160.274 138.192 152.34 134.318 140.714C130.445 129.088 131.805 118.172 131.805 118.172C131.805 118.172 139.446 126.106 143.319 137.732Z" fill="#F3BA8D"/>
<path d="M148.345 137.732C144.472 149.358 145.832 160.274 145.832 160.274C145.832 160.274 153.473 152.34 157.346 140.714C161.219 129.088 159.859 118.172 159.859 118.172C159.859 118.172 152.219 126.106 148.345 137.732Z" fill="#F3BA8D"/>
<path d="M149.905 137.857C150.165 150.106 145.634 160.135 145.634 160.135C145.634 160.135 140.682 150.306 140.423 138.057C140.163 125.809 144.694 115.78 144.694 115.78C144.694 115.78 149.646 125.609 149.905 137.857Z" fill="#3F3D56"/>
<path d="M145.632 160.873C151.681 160.873 156.586 160.604 156.586 160.273C156.586 159.942 151.681 159.673 145.632 159.673C139.582 159.673 134.677 159.942 134.677 160.273C134.677 160.604 139.582 160.873 145.632 160.873Z" fill="#3F3D56"/>
<path d="M41.1959 160.459C44.6285 160.459 47.4112 157.684 47.4112 154.261C47.4112 150.837 44.6285 148.062 41.1959 148.062C37.7632 148.062 34.9805 150.837 34.9805 154.261C34.9805 157.684 37.7632 160.459 41.1959 160.459Z" fill="#F2F2F2"/>
<path d="M42.3361 144.233C40.1078 144.236 37.9717 145.12 36.3963 146.692C34.8209 148.263 33.9349 150.394 33.9326 152.616C33.9326 152.662 33.9326 152.708 33.9355 152.754C33.9629 154.301 34.4183 155.811 35.2514 157.116C36.0846 158.422 37.2631 159.472 38.657 160.152C39.1504 160.395 39.6671 160.587 40.1993 160.725C41.6011 161.092 43.0739 161.092 44.4757 160.725C45.0079 160.587 45.5246 160.395 46.018 160.152C47.727 159.322 49.1034 157.938 49.9224 156.227C50.7413 154.516 50.9546 152.579 50.5273 150.732C50.1001 148.884 49.0575 147.236 47.5698 146.055C46.0821 144.875 44.2371 144.233 42.3361 144.233ZM44.3924 160.152C43.7225 160.336 43.0308 160.428 42.3361 160.427C42.1982 160.427 42.0604 160.424 41.9254 160.416H41.9225C41.3678 160.388 40.8179 160.3 40.2826 160.152C39.151 159.843 38.1032 159.285 37.2161 158.519C36.329 157.754 35.6251 156.799 35.1561 155.727V155.724C34.5209 154.263 34.3487 152.644 34.6625 151.083C34.9762 149.522 35.761 148.094 36.9116 146.99C38.0622 145.886 39.5236 145.16 41.0999 144.908C42.6763 144.656 44.2921 144.891 45.7309 145.58C47.1697 146.27 48.3627 147.382 49.1499 148.767C49.9372 150.152 50.281 151.744 50.1354 153.33C49.9897 154.915 49.3616 156.418 48.3351 157.638C47.3087 158.857 45.933 159.735 44.3924 160.152Z" fill="#3F3D56"/>
<path d="M112.99 112.143H66.4637V120.382H112.99V112.143Z" fill="#F2F2F2"/>
<path d="M258.026 35.094H211.499V43.3334H258.026V35.094Z" fill="#F2F2F2"/>
<path d="M258.026 53.1388H211.499V61.3782H258.026V53.1388Z" fill="#F2F2F2"/>
<path d="M258.026 70.6108H211.499V78.8502H258.026V70.6108Z" fill="#F2F2F2"/>
<path d="M258.026 88.0828H211.499V96.3222H258.026V88.0828Z" fill="#F2F2F2"/>
<path d="M258.026 106.128H211.499V114.367H258.026V106.128Z" fill="#F2F2F2"/>
<path d="M258.026 124.172H211.499V132.412H258.026V124.172Z" fill="#F2F2F2"/>
<path d="M66.1765 109.211V120.668H128.212V109.211H66.1765ZM127.637 120.095H66.7509V109.784H127.637V120.095Z" fill="#3F3D56"/>
<path d="M169.568 47.6298C171.154 47.6298 172.44 46.3474 172.44 44.7655C172.44 43.1836 171.154 41.9012 169.568 41.9012C167.982 41.9012 166.696 43.1836 166.696 44.7655C166.696 46.3474 167.982 47.6298 169.568 47.6298Z" fill="#3F3D56"/>
<path d="M169.568 65.3882C171.154 65.3882 172.44 64.1058 172.44 62.5239C172.44 60.942 171.154 59.6597 169.568 59.6597C167.982 59.6597 166.696 60.942 166.696 62.5239C166.696 64.1058 167.982 65.3882 169.568 65.3882Z" fill="#3F3D56"/>
<path d="M169.568 83.1466C171.154 83.1466 172.44 81.8642 172.44 80.2823C172.44 78.7005 171.154 77.4181 169.568 77.4181C167.982 77.4181 166.696 78.7005 166.696 80.2823C166.696 81.8642 167.982 83.1466 169.568 83.1466Z" fill="#3F3D56"/>
<path d="M169.568 100.905C171.154 100.905 172.44 99.6226 172.44 98.0407C172.44 96.4588 171.154 95.1765 169.568 95.1765C167.982 95.1765 166.696 96.4588 166.696 98.0407C166.696 99.6226 167.982 100.905 169.568 100.905Z" fill="#3F3D56"/>
<path d="M169.568 118.663C171.154 118.663 172.44 117.381 172.44 115.799C172.44 114.217 171.154 112.935 169.568 112.935C167.982 112.935 166.696 114.217 166.696 115.799C166.696 117.381 167.982 118.663 169.568 118.663Z" fill="#3F3D56"/>
<path d="M169.568 136.422C171.154 136.422 172.44 135.139 172.44 133.558C172.44 131.976 171.154 130.693 169.568 130.693C167.982 130.693 166.696 131.976 166.696 133.558C166.696 135.139 167.982 136.422 169.568 136.422Z" fill="#3F3D56"/>
<path d="M274.109 44.4791H195.416V45.0519H274.109V44.4791Z" fill="#3F3D56"/>
<path d="M274.109 62.2375H195.416V62.8103H274.109V62.2375Z" fill="#3F3D56"/>
<path d="M274.109 79.9959H195.416V80.5688H274.109V79.9959Z" fill="#3F3D56"/>
<path d="M274.109 97.7543H195.416V98.3271H274.109V97.7543Z" fill="#3F3D56"/>
<path d="M274.109 115.513H195.416V116.086H274.109V115.513Z" fill="#3F3D56"/>
<path d="M274.109 133.271H195.416V133.844H274.109V133.271Z" fill="#3F3D56"/>
<path d="M288.285 149.863L280.736 143.686L286.929 136.157L294.479 142.334L288.285 149.863ZM281.544 143.606L288.205 149.056L293.67 142.413L287.009 136.963L281.544 143.606Z" fill="#3F3D56"/>
<path d="M178.907 15.2001L171.802 9.38672L165.973 16.4729L173.078 22.2862L178.907 15.2001Z" fill="#F3BA8D"/>
<path d="M135.392 62.5239C135.404 70.6031 132.828 78.475 128.039 84.9912C127.494 85.7359 126.922 86.4634 126.322 87.1651C124.626 89.1578 122.731 90.9718 120.664 92.5786C120.457 92.739 120.248 92.8994 120.035 93.0569C119.26 93.6355 118.462 94.1845 117.643 94.7039C117.393 94.8614 117.143 95.0161 116.89 95.165C116.319 95.5116 115.737 95.8419 115.144 96.1561C114.854 96.3107 114.561 96.4625 114.268 96.6086C108.248 99.604 101.542 100.962 94.8279 100.545C88.1134 100.128 81.6282 97.9511 76.0275 94.2341C75.7288 94.0394 75.4358 93.8389 75.1458 93.6326C74.6001 93.2488 74.063 92.8478 73.5403 92.4354C73.0578 92.0573 72.5868 91.6649 72.1244 91.2639C69.69 89.1528 67.5333 86.7429 65.7055 84.0918C65.3494 83.5734 65.0047 83.0463 64.6716 82.5107C61.5736 77.4967 59.6835 71.8346 59.1497 65.9692C58.6159 60.1038 59.4529 54.1949 61.595 48.7065C63.7371 43.2181 67.126 38.2998 71.4955 34.3379C75.8649 30.376 81.0959 27.4783 86.7776 25.8726C92.4593 24.2668 98.4369 23.9967 104.241 25.0834C110.045 26.1701 115.517 28.5841 120.228 32.1357C124.939 35.6873 128.76 40.2798 131.391 45.5525C134.022 50.8252 135.391 56.6344 135.392 62.5239Z" fill="#F7F7F7"/>
<path d="M95.7555 60.6443C101.503 60.6443 106.162 55.9977 106.162 50.2659C106.162 44.534 101.503 39.8875 95.7555 39.8875C90.0082 39.8875 85.3491 44.534 85.3491 50.2659C85.3491 55.9977 90.0082 60.6443 95.7555 60.6443Z" fill="#A0616A"/>
<path d="M88.6011 55.2389C88.6011 55.2389 92.0699 63.0227 87.3003 66.0497C82.5307 69.0768 95.1051 81.6174 95.1051 81.6174L108.98 66.9146C108.98 66.9146 101.609 62.1578 102.91 54.374L88.6011 55.2389Z" fill="#A0616A"/>
<path d="M120.664 92.5786C120.457 92.739 120.248 92.8994 120.035 93.0569C119.26 93.6355 118.462 94.1845 117.643 94.7039C117.393 94.8614 117.143 95.0161 116.89 95.165L116.784 94.5893L117.783 94.0709L120.664 92.5786Z" fill="#A0616A"/>
<path d="M116.89 95.165C117.143 95.0161 117.393 94.8614 117.643 94.7039L117.651 94.5893L117.783 94.0709L123.289 72.5374L106.6 64.8784L96.8408 70.8074L88.0984 65.4312C88.0984 65.4312 82.9633 65.6173 81.6623 66.9148C80.6427 67.9317 75.6426 70.2718 73.5173 71.2399C72.9257 71.5091 72.5581 71.6724 72.5581 71.6724C72.5581 71.6724 72.8855 81.4853 73.5403 92.4354C74.063 92.8478 74.6001 93.2488 75.1458 93.6326C75.4358 93.8389 75.7288 94.0394 76.0274 94.2341C81.6282 97.9511 88.1134 100.128 94.8279 100.545C101.542 100.962 108.248 99.604 114.268 96.6086L116.89 95.165Z" fill="#F3BA8D"/>
<path d="M76.0274 71.2399V94.2342C75.7287 94.0394 75.4358 93.8389 75.1457 93.6327C74.6001 93.2489 74.063 92.8479 73.5403 92.4354C73.0578 92.0573 72.5868 91.6649 72.1244 91.2639C69.69 89.1528 67.5332 86.7429 65.7055 84.0918C65.3493 83.5734 65.0047 83.0463 64.6716 82.5107C64.953 81.5884 65.2689 80.5697 65.6193 79.4546C67.7877 72.5374 72.5581 71.2399 72.5581 71.2399H76.0274Z" fill="#F3BA8D"/>
<path d="M116.89 95.165C117.143 95.0161 117.393 94.8614 117.643 94.7039C118.461 94.1854 119.259 93.6364 120.035 93.0569C120.248 92.8994 120.457 92.739 120.664 92.5786C122.731 90.9718 124.626 89.1578 126.322 87.1651C126.922 86.4634 127.494 85.7359 128.039 84.9912C126.273 79.4861 123.289 72.5374 123.289 72.5374L117.218 72.1049C117.218 72.1049 114.753 91.7766 114.268 96.6086L116.89 95.165Z" fill="#F3BA8D"/>
<path d="M89.3751 38.2534C88.8545 38.6953 88.3111 39.1099 87.7473 39.4955C87.0363 40.0838 86.3795 40.7344 85.7849 41.4396L85.1139 42.1888C84.5429 42.8264 83.937 43.554 83.9611 44.4086C83.9701 44.7256 84.0678 45.0333 84.106 45.3482C84.2579 46.5974 83.4923 47.9704 84.1225 49.0605C84.3047 49.3757 84.5865 49.6221 84.7873 49.9258C85.0429 50.315 85.1561 50.7802 85.1079 51.2429C85.7851 51.2706 86.3407 50.6654 86.5531 50.0234C86.7655 49.3815 86.7367 48.688 86.8402 48.02C86.9436 47.3519 87.2342 46.6446 87.8428 46.3471C89.1415 45.7126 90.6328 47.3625 92.019 46.9513C92.9869 46.6642 93.4973 45.4676 94.4868 45.267C95.1951 45.1234 95.8769 45.543 96.5352 45.8405C97.1935 46.138 98.0809 46.2757 98.5464 45.7243C98.8546 45.3592 98.8875 44.7743 99.2962 44.5262C99.7861 44.2289 100.4 44.6428 100.771 45.079C101.141 45.5152 101.551 46.0485 102.124 46.0327C102.885 46.0116 103.467 45.0016 104.189 45.2412C105.004 45.5117 104.629 46.8119 105.124 47.5121C105.542 48.1041 106.417 48.0692 107.136 47.9714C107.257 47.9837 107.38 47.9651 107.492 47.9173C107.604 47.8695 107.702 47.7941 107.777 47.6983C107.852 47.6024 107.901 47.4891 107.92 47.369C107.94 47.2489 107.928 47.1259 107.886 47.0116L107.586 43.0382C107.585 42.7644 107.525 42.494 107.41 42.2452C107.201 41.8673 106.767 41.6759 106.473 41.3596C105.853 40.6945 105.883 39.5286 105.113 39.045C104.713 38.7939 104.19 38.8015 103.793 38.5459C103.284 38.2182 103.12 37.5619 102.763 37.0733C102.253 36.3748 101.362 36.0509 100.5 35.9621C99.6382 35.8732 98.7684 35.9804 97.9024 35.9522C96.1418 35.8949 94.3813 35.4008 92.6122 35.69C91.0686 35.9424 90.4206 37.2487 89.3751 38.2534Z" fill="#2F2E41"/>
<path d="M294.508 36.2891C295.172 36.2891 295.71 35.7523 295.71 35.09C295.71 34.4278 295.172 33.891 294.508 33.891C293.844 33.891 293.305 34.4278 293.305 35.09C293.305 35.7523 293.844 36.2891 294.508 36.2891Z" fill="#3F3D56"/>
<path d="M286.179 21.6814C286.843 21.6814 287.381 21.1445 287.381 20.4823C287.381 19.8201 286.843 19.2833 286.179 19.2833C285.515 19.2833 284.977 19.8201 284.977 20.4823C284.977 21.1445 285.515 21.6814 286.179 21.6814Z" fill="#3F3D56"/>
<path d="M282.732 5.92794C283.396 5.92794 283.935 5.39111 283.935 4.72889C283.935 4.06668 283.396 3.52985 282.732 3.52985C282.068 3.52985 281.53 4.06668 281.53 4.72889C281.53 5.39111 282.068 5.92794 282.732 5.92794Z" fill="#3F3D56"/>
</g>
<defs>
<clipPath id="clip0">
<rect width="305" height="161" fill="white" transform="translate(0.985107)"/>
</clipPath>
</defs>
</svg>
